<?xml version="1.0" encoding="utf-8"?>
<!-- Generator: Adobe Illustrator 16.0.0, SVG Export Plug-In . SVG Version: 6.00 Build 0)  -->
<!DOCTYPE svg PUBLIC "-//W3C//DTD SVG 1.1//EN" "http://www.w3.org/Graphics/SVG/1.1/DTD/svg11.dtd">
<svg version="1.1" id="Layer_1" xmlns="http://www.w3.org/2000/svg" xmlns:xlink="http://www.w3.org/1999/xlink" x="0px" y="0px"
	 width="612px" height="792px" viewBox="0 0 612 792" enable-background="new 0 0 612 792" xml:space="preserve">
<g>
	<path fill-rule="evenodd" clip-rule="evenodd" fill="none" stroke="#FFF" stroke-width="8" stroke-miterlimit="10" d="
		M600.389,399.853c0,9.474,0.024,18.947-0.034,28.421c-0.006,1.063,0.841,2.711-1.349,2.928c-0.41,0.042-0.246,0.747-0.277,1.176
		c-5.115,71.687-24.272,139.035-62.57,200.307c-21.839,34.936-48.626,65.577-81.668,90.457
		c-32.483,24.46-68.707,40.497-108.768,47.717c-5.686,1.024-11.765,0.778-17.096,2.545c-6.767,2.242-13.348,0.869-19.979,1.25
		c-6.907,0.396-13.854,0.105-20.785,0.07c-0.895-0.004-2.221,0.577-2.242-1.248c-0.004-0.43-0.668-0.382-1.108-0.42
		c-44.48-3.713-84.297-19.971-120.596-45.325c-36.493-25.49-65.161-58.338-88.615-95.91c-24.835-39.782-41.32-82.95-51.743-128.553
		c-4.808-21.034-8.024-42.307-9.875-63.794c-0.232-2.708-0.335-5.427-0.584-8.133c-0.114-1.229,0.639-2.894-1.463-3.361
		c-0.177-0.039-0.168-1.119-0.168-1.717c-0.009-18.07-0.015-36.14,0.019-54.209c0.001-0.834-0.701-2.243,1.221-2.165
		c0.399,0.017,0.4-0.669,0.416-1.117c0.604-16.757,2.816-33.333,5.734-49.819c11.216-63.388,33.094-122.433,71.658-174.576
		c22.157-29.958,47.856-56.372,78.889-77.298c28.357-19.121,59.363-31.892,92.903-38.485c6.957-1.368,13.979-2.407,21.067-2.928
		c1.465-0.107,3.236,0.258,4.122-1.651c0.132-0.287,1.127-0.235,1.724-0.236c11.14-0.011,22.28-0.019,33.42,0.016
		c0.688,0.002,1.9-0.606,1.788,1.059c-0.04,0.598,0.577,0.66,1.171,0.697c24.791,1.508,48.423,7.86,71.289,17.273
		c39.177,16.127,72.207,40.865,100.611,72.06c39.005,42.837,65.484,92.649,82.357,147.814c7.462,24.394,12.931,49.227,16.198,74.528
		c1.257,9.735,2.204,19.507,2.77,29.308c3.073,5.156,1.238,10.805,1.524,16.219c0.3,5.685,0.067,11.4,0.067,17.102
		C600.405,399.853,600.397,399.853,600.389,399.853z"/>
	<path fill-rule="evenodd" clip-rule="evenodd" fill="none" stroke="#FFF" stroke-width="7" stroke-miterlimit="10" d="
		M26.292,399.106c0.174-19.052,1.023-36.641,3.174-54.131c5.951-48.398,19.499-94.572,41.182-138.279
		c12.295-24.784,27.257-47.852,45.292-68.894c21.161-24.692,45.225-45.973,73.25-62.61c23.437-13.914,48.521-23.466,75.361-28.42
		c14.761-2.726,29.627-4.244,44.619-4.054c40.488,0.514,77.908,11.914,112.79,32.183c25.007,14.531,47.155,32.594,66.484,54.068
		c26.6,29.553,47.242,62.925,62.978,99.374c11.782,27.293,20.276,55.595,25.885,84.786c2.819,14.674,4.942,29.428,6.346,44.304
		c1.614,17.128,2.37,34.284,1.926,51.473c-0.369,14.269-1.391,28.504-2.99,42.703c-3.759,33.352-11.131,65.836-22.655,97.37
		c-12.397,33.921-28.92,65.678-50.279,94.821c-28.725,39.195-64.44,70.149-108.626,90.883
		c-19.378,9.093-39.665,15.289-60.872,18.514c-16.884,2.566-33.826,3.245-50.822,1.945c-28.237-2.158-55.194-9.297-80.749-21.549
		c-32.819-15.734-60.963-37.748-85.424-64.506c-27.404-29.977-47.917-64.368-63.72-101.645
		c-11.669-27.524-20.071-56.038-25.396-85.469c-2.63-14.535-4.529-29.151-5.857-43.863
		C26.971,424.649,26.652,411.165,26.292,399.106z"/>
	<path fill-rule="evenodd" clip-rule="evenodd" fill="none" stroke="#FFF" stroke-width="7" stroke-miterlimit="10" d="
		M97.143,396.921c-0.191-11.643,0.418-24.867,1.799-38.033c5.387-51.357,20.128-99.751,46.682-144.232
		c19.274-32.291,44.26-59.233,76.406-79.142c19.541-12.103,40.725-19.846,63.55-22.749c34.759-4.421,67.391,2.259,97.874,19.443
		c34.689,19.554,60.987,47.584,81.528,81.314c18.774,30.83,31.693,64.021,39.653,99.203c3.197,14.138,5.749,28.382,7.248,42.785
		c2.077,19.975,3.053,40.016,2.162,60.104c-2.266,51.125-12.924,100.201-35.762,146.305c-9.817,19.82-21.249,38.621-35.467,55.605
		c-24.52,29.284-53.824,51.859-90.651,63.646c-17.386,5.563-35.249,7.995-53.457,7.076c-29.413-1.485-56.391-10.701-81.058-26.678
		c-18.805-12.184-35.119-27.169-49.363-44.448c-27.93-33.874-45.919-72.761-57.819-114.704
		c-4.908-17.296-8.255-34.927-10.437-52.757C97.955,432.691,96.963,415.635,97.143,396.921z"/>
	<path fill-rule="evenodd" clip-rule="evenodd" fill="#FFF" d="M159.797,641.771c3.415-1.111,6.346-2.154,9.331-3.008
		c2.625-0.748,5.186-0.651,7.378,1.321c3.013,2.71,3.053,3.654,0.231,6.408c-4.527,4.42-8.134,9.614-12.152,14.462
		c-1.061,1.281-2.139,2.552-3.268,3.772c-1.027,1.11-1.674,2.305-0.901,3.768c0.545,1.031,0.146,1.183-0.79,1.549
		c-2.237,0.878-3.907,0.058-5.466-1.393c-1.593-1.483-2.584-3.505-4.641-4.889c7.855-4.479,12.76-11.483,18.393-18.771
		c-7.054,1.789-13.133,4.896-20.3,4.817c3.756-5.272,6.373-10.826,8.952-16.394c-0.832-0.657-1.544-0.035-2.192,0.229
		c-5.681,2.347-10.784,5.541-13.558,11.243c-0.752,1.546-1.315,2.601-2.997,2.877c-1.939,0.322-6.865-3.579-6.742-5.399
		c0.039-0.58,0.669-0.714,1.121-0.961c7.504-4.104,14.306-9.316,21.631-13.705c1.392-0.834,2.883-1.745,1.731-3.949
		c-0.503-0.962,2.232-1.972,3.852-1.327c1.524,0.609,2.509,1.869,3.556,3.032c1.171,1.301,2.714,2.495,3.293,4.038
		c0.646,1.722-1.469,2.815-2.177,4.302C162.849,636.381,161.38,638.856,159.797,641.771z"/>
	<path fill-rule="evenodd" clip-rule="evenodd" fill="#FFF" d="M336.428,81.702c-1.208,5.213-2.295,9.779-3.311,14.36
		c-0.334,1.498-0.395,3.078,1.355,3.795c1.123,0.459,0.973,0.857,0.401,1.694c-1.634,2.394-6.799,2.947-8.852,0.902
		c-0.535-0.532-0.096-0.915,0.063-1.381c2.906-8.484,4.521-17.28,6.25-26.047c0.139-0.705,0.238-1.309-0.233-1.978
		c-0.444-0.63-2.17-0.532-1.203-2.007c0.809-1.235,1.493-2.645,3.276-2.61c2.211,0.041,4.241,0.885,6.283,1.602
		c0.838,0.294,0.794,1.238,0.983,1.997c1.979,7.919,4.925,15.5,8.439,23.093c1.064-5.004,2.147-10.005,3.184-15.015
		c0.205-0.987-0.052-1.834-0.951-2.531c-0.553-0.43-1.822-0.697-1.114-1.874c0.607-1.009,0.995-2.308,2.421-2.524
		c2.426-0.368,4.653,0.571,6.871,1.268c1.266,0.397,0.189,1.34-0.065,1.924c-3.272,7.51-5.081,15.341-5.193,23.539
		c-0.018,1.389,0.005,2.823,0.325,4.16c0.603,2.516-0.448,4.16-3.003,4.396c-2.333,0.215-4.405-0.954-6.651-1.255
		c-0.906-0.121-0.804-1.567-1.032-2.441C342.663,97.038,339.691,89.662,336.428,81.702z"/>
	<path fill-rule="evenodd" clip-rule="evenodd" fill="#FFF" d="M175.737,159.409c-4.515-7.524-9.93-14.106-16.647-19.574
		c-1.222-0.996-2.494-1.919-3.963-2.502c-2.479-0.982-3.335-3.316-1.657-5.287c1.289-1.515,2.905-2.765,4.459-4.03
		c0.708-0.578,1.451,0.033,2.194,0.28c7.397,2.471,14.81,4.898,22.223,7.324c0.314,0.102,0.672,0.072,1.533,0.151
		c-3.461-4.213-6.63-8.108-9.85-11.96c-0.653-0.78-1.604-0.945-2.642-0.818c-0.943,0.115-1.971,1.871-2.867-0.22
		c-0.707-1.651-0.573-3.063,0.595-4.35c1.408-1.551,2.955-2.957,4.872-4.109c4.442,8.267,11.568,14.388,17.365,21.588
		c0.992,1.232,2.192,1.383,3.497,0.905c1.307-0.479,1.678,0.095,1.858,1.228c0.28,1.767-0.153,3.223-1.466,4.507
		c-2.61,2.554-4.936,3.7-8.949,1.847c-6.429-2.967-13.519-4.288-21.015-6.093c3.628,4.176,6.869,7.946,10.16,11.669
		c0.822,0.931,1.942,1.194,3.087,0.588c1.769-0.938,2.168,0.085,2.383,1.534c0.292,1.952-0.602,3.379-1.976,4.596
		C177.948,157.553,176.935,158.389,175.737,159.409z"/>
	<path fill-rule="evenodd" clip-rule="evenodd" fill="#FFF" d="M76.677,456.298c-4.94,0.868-9.724,1.765-14.531,2.517
		c-1.428,0.224-2.152,0.961-2.627,2.186c-0.266,0.688,0.235,1.96-1.289,1.732c-1.178-0.175-2.525,0.097-3.212-1.289
		c-0.116-0.232-0.262-0.456-0.335-0.702c-0.557-1.834-1.545-3.832-1.01-5.572c0.661-2.151,3.117-1.022,4.661-1.174
		c7.654-0.759,15.115-2.485,22.624-3.992c1.03-0.208,2.079-0.354,2.466-1.595c0.205-0.657-0.208-1.766,1.066-1.734
		c1.26,0.031,2.397,0.354,3.206,1.465c2.497,3.433,1.861,7.851-1.553,10.317c-5.905,4.27-10.962,9.423-15.622,15.296
		c3.355-0.59,6.712-1.165,10.062-1.778c1.369-0.251,2.71-0.67,4.084-0.864c1.307-0.188,2.095-0.685,2.125-2.126
		c0.032-1.592,0.821-1.868,2.265-1.343c2.702,0.978,4.494,4.832,3.468,7.588c-0.368,0.989-1.143,0.587-1.753,0.634
		c-7.221,0.551-14.406,1.3-21.342,3.548c-2.066,0.67-4.1,1.434-5.801,2.833c-2.192,1.802-5.029,1.003-5.754-1.762
		c-0.462-1.759-0.633-3.589-0.992-5.376c-0.222-1.109,0.728-1.25,1.291-1.701c6.076-4.874,11.946-9.983,17.576-15.367
		C76.168,457.633,76.754,457.295,76.677,456.298z"/>
	<path fill-rule="evenodd" clip-rule="evenodd" fill="#FFF" d="M513.702,235.642c-4.563,2.063-9.129,4.116-13.682,6.198
		c-0.747,0.343-1.178,0.922-1.247,1.837c-0.061,0.812,0.675,1.979-0.902,2.299c-1.592,0.322-2.997,0.106-4.031-1.187
		c-1.164-1.454-1.485-3.306-2.145-4.999c-0.339-0.865,0.27-0.785,0.759-0.883c7.361-1.484,13.516-5.958,20.535-8.308
		c2.724-0.913,4.852-2.686,6.413-5.148c1.082-1.707,3.36-1.769,4.426,0.018c1.104,1.845,1.923,3.877,2.694,5.893
		c0.353,0.922-0.619,1.555-1.132,2.198c-4.521,5.663-8.56,11.665-12.507,17.729c-0.349,0.536-1.237,1.008-0.669,1.784
		c0.676,0.923,1.411,0.069,2.036-0.194c3.521-1.485,7.035-2.987,10.508-4.581c1.242-0.57,2.575-1.177,2.594-2.958
		c0.007-0.729-0.752-1.895,0.712-2.097c1.384-0.193,2.804-0.355,3.822,1.004c1.486,1.981,2.202,4.287,3.03,6.664
		c-3.799,0.093-7.181,1.214-10.324,2.939c-3.657,2.006-7.398,3.769-11.379,5.024c-2.59,0.817-4.682,2.271-5.964,4.747
		c-1.071,2.064-3.022,2.453-4.566,0.768c-1.686-1.842-1.918-4.44-3.037-6.597c-0.163-0.315,0.548-1.173,0.966-1.687
		C505.697,249.854,509.683,242.873,513.702,235.642z"/>
	<path fill-rule="evenodd" clip-rule="evenodd" fill="#FFF" d="M529.668,371.411c-3.581-1.039-6.029-5.773-5.008-9.377
		c0.241-0.854,0.972-0.906,1.516-1.281c6.4-4.414,12.684-8.976,18.256-14.437c0.229-0.226,0.423-0.486,1.047-1.208
		c-5.551,0.607-10.535,1.107-15.504,1.727c-1.287,0.159-1.821,1.339-2.024,2.471c-0.227,1.286-0.752,1.28-1.795,0.856
		c-2.269-0.924-4.441-5.71-3.582-8.01c0.316-0.846,0.988-0.583,1.517-0.548c7.829,0.522,15.475-1.609,23.271-1.605
		c2.08,0.001,3.838-0.934,5.331-2.408c2.03-1.998,4.147-1.477,5.098,1.204c1.354,3.813,0.629,6.341-2.528,8.702
		c-5.521,4.123-11.064,8.215-16.56,12.373c-0.616,0.466-1.906,0.824-1.364,1.899c0.394,0.781,1.428,0.227,2.166,0.141
		c3.814-0.441,7.623-0.931,11.437-1.373c1.809-0.209,3.807-0.01,3.893-2.742c0.025-0.854,0.75-0.983,1.579-0.834
		c2.825,0.509,5.327,6.426,3.714,8.807c-0.261,0.385-0.474,0.363-0.834,0.239c-4.549-1.571-8.993,0.269-13.482,0.487
		c-3.918,0.191-7.803,0.977-11.718,1.284C531.642,367.97,529.851,368.638,529.668,371.411z"/>
	<path fill-rule="evenodd" clip-rule="evenodd" fill="#FFF" d="M531.482,294.69c-3.594-0.511-6.506,0.744-9.468,1.751
		c-5.586,1.901-8.185,0.86-10.847-4.347c-5.134-10.045,0.27-21.101,11.802-24.151c8.868-2.344,16.583,0.208,20.458,6.913
		c2.533,4.384,2.885,9.018,1.35,13.881c-0.472,1.489-1.189,1.478-2.275,1.099c-3.278-1.146-3.924-4.073-4.851-6.959
		c2.726,0.283,2.896,0.121,2.764-2.419c-0.15-2.888-2.203-4.761-5.832-5.2c-6.686-0.809-12.612,0.971-17.654,5.451
		c-2.132,1.894-2.721,4.425-2.32,7.167c0.158,1.073,0.853,1.867,1.916,2.319c2.35,0.998,4.247-0.363,6.133-1.29
		c1.611-0.79,1.092-2.483,0.73-3.758c-0.604-2.134,0.253-2.281,1.928-1.766c2.366,0.728,3.47,2.529,3.976,4.761
		C529.767,290.258,530.123,292.399,531.482,294.69z"/>
	<path fill-rule="evenodd" clip-rule="evenodd" fill="#FFF" d="M64.24,511.566c7.539,0.943,14.6,0.105,21.503-2.1
		c2.405-0.767,4.663-1.838,6.559-3.618c2.054-1.929,2.401-4.26,1.568-6.71c-0.809-2.38-2.539-3.665-5.225-4.041
		c-6.769-0.945-12.935,1.065-19.069,3.402c-1,0.379-1.612,1.15-1.874,2.31c-0.566,2.53-2.539,3.054-4.376,1.096
		c-1.839-1.956-1.545-4.738-2.327-7.11c-0.199-0.605,0.489-0.577,0.885-0.565c5.964,0.173,11.366-2.425,17.085-3.44
		c3.357-0.599,6.735-1.204,10.157-0.527c5.845,1.157,9.165,4.834,10.237,10.705c1.068,5.857-1.205,9.985-5.945,13.138
		c-4.483,2.983-9.632,3.836-14.763,4.776c-1.199,0.219-2.428,0.315-3.601,0.628c-1.178,0.315-2.593,0.735-2.774,2.099
		c-0.393,2.963-1.967,1.488-3.096,0.862c-1.802-0.999-2.521-2.839-2.917-4.754C65.844,515.667,65.317,513.665,64.24,511.566z"/>
	<path fill-rule="evenodd" clip-rule="evenodd" fill="#FFF" d="M473.985,601.039c-4.107-5.848,1.147-9.212,2.822-13.543
		c5.37,6.179,11.552,11.022,19.067,13.924c3.216,1.239,6.614,1.898,9.43-1.18c2.244-2.453,2.37-5.416,0.313-8.011
		c-4.322-5.451-10.299-8.459-16.503-11.102c-0.762-0.326-1.655-0.289-2.516,0.171c-0.744,0.397-1.386,1.846-2.33,0.906
		c-1.007-1.004-2.049-2.321-1.549-3.947c0.621-2.025,1.915-3.687,3.287-5.279c0.493-0.574,0.854-0.409,1.251,0.046
		c3.439,3.928,8.471,5.376,12.664,8.127c3.507,2.296,7.038,4.521,9.496,8.079c3.07,4.444,3.068,9.09-0.177,14.128
		c-2.975,4.62-7.709,6.646-12.729,5.775c-6.68-1.157-11.882-5.153-17.315-8.706C477.306,599.192,475.62,598.377,473.985,601.039z"/>
	<path fill-rule="evenodd" clip-rule="evenodd" fill="#FFF" d="M548.5,423.173c-4.449-1.277-5.393-2.588-5.244-6.711
		c0.176-4.908,0.176-4.908-4.675-4.908c-1.229,0-2.455,0-3.682,0.001c-3.605,0-3.567,0.004-3.984,3.715
		c-0.352,3.138-0.636,6.267-0.006,9.401c0.3,1.495-0.273,1.844-1.692,1.454c-2.101-0.58-3.401-1.833-3.438-4.032
		c-0.103-6.045-0.101-12.092-0.168-18.138c-0.013-1.014,0.24-1.357,1.361-1.182c8.939,1.398,17.956,1.466,26.975,1.442
		c1.039-0.002,2.016,0.119,2.709-1.065c1.17-2.001,2.756-1.975,4.09-0.065c0.631,0.901,0.713,1.928,0.71,3.002
		c-0.013,6.483-0.06,12.969,0.054,19.453c0.033,1.825-0.629,2.034-2.127,1.634c-4.168-1.114-4.81-2.376-3.347-6.597
		c0.856-2.469,0.349-5.035,0.408-7.558c0.021-0.818-0.568-0.957-1.255-0.945c-0.876,0.014-1.753-0.021-2.629-0.029
		c-4.689-0.046-4.709-0.045-4.762,4.828C547.778,418.871,547.579,420.885,548.5,423.173z"/>
	<path fill-rule="evenodd" clip-rule="evenodd" fill="#FFF" d="M555.57,324.405c-2.732,0.884-4.772,0.095-6.601-1.963
		c-1.116-1.259-1.448-2.185-0.297-3.589c1.07-1.305,0.529-5.627-0.937-7.288c-1.105-1.25-2.549-0.461-3.863-0.152
		c-4.662,1.093-4.681,1.093-3.53,5.881c0.442,1.85,0.979,3.68,1.474,5.516c-2.946,0.7-4.603-0.113-5.554-2.904
		c-0.502-1.477-0.771-3.029-1.223-4.524c-0.385-1.276-0.883-2.11-2.62-1.476c-2.192,0.801-4.534,1.212-6.829,1.701
		c-2.177,0.463-2.862,1.783-2.406,3.833c0.77,3.465,1.288,7.002,2.882,10.232c0.731,1.484,0.169,1.809-1.298,1.613
		c-2.527-0.337-4.229-1.643-4.82-4.108c-1.429-5.984-2.761-11.991-4.155-18.093c9.52-0.316,18.314-3.674,27.438-5.391
		c0.96-0.181,1.69-0.656,1.895-1.561c0.222-0.976-0.176-2.2,1.53-2.148c1.518,0.047,2.719,0.534,3.449,1.915
		c0.908,1.716,1.119,3.635,1.548,5.489C552.96,313.054,554.262,318.72,555.57,324.405z"/>
	<path fill-rule="evenodd" clip-rule="evenodd" fill="#FFF" d="M81.437,358.587c4.543,1.023,5.429,2.035,5.227,6.507
		c-0.244,5.415-0.706,10.821-1.012,16.235c-0.059,1.05-0.304,1.34-1.391,1.082c-8.485-2.01-17.207-1.606-25.807-2.461
		c-1.25-0.125-2.456-0.041-3.278,1.139c-0.55,0.788-0.864,1.992-2.278,1.345c-1.236-0.565-2.3-1.278-2.438-2.788
		c-0.039-0.436-0.031-0.878-0.005-1.314c0.378-6.643,0.81-13.281,1.116-19.928c0.075-1.633,0.736-1.874,2.12-1.557
		c3.693,0.852,5.138,4.746,2.764,7.542c-0.805,0.948-1.33,6.569-0.538,7.304c0.769,0.711,1.882,0.802,2.922,0.886
		c5.148,0.423,5.325,0.282,5.715-4.801c0.074-0.958-0.116-1.963,0.099-2.88c0.218-0.93-1.005-2.588,0.856-2.707
		c1.683-0.107,3.023,0.889,3.245,2.738c0.208,1.736,0.396,3.502,0.307,5.24c-0.114,2.24,0.474,3.305,2.988,3.109
		c1.892-0.146,3.824,0.344,5.744,0.438c3.021,0.148,3.611-0.465,3.744-3.57C81.704,366.31,82.129,362.478,81.437,358.587z"/>
	<path fill-rule="evenodd" clip-rule="evenodd" fill="#FFF" d="M484.327,183.267c-2.212,1.698-4.159,1.488-5.981-0.439
		c-0.301-0.319-0.586-0.665-0.932-0.926c-1.525-1.147-2.309-3.865-4.046-3.742c-1.612,0.115-3.098,2.077-4.633,3.233
		c-0.28,0.21-0.525,0.466-0.801,0.68c-3.804,2.965-3.878,3.264-0.968,7.285c1.891,2.612,3.717,5.295,6.318,7.323
		c-3.408,2.497-5.065,2.309-7.446-0.819c-3.692-4.855-7.364-9.725-11.154-14.732c8.203-2.81,13.453-9.763,20.688-13.803
		c1.773-0.991,2.716-2.939,3.332-4.9c0.322-1.022,0.019-2.343,1.667-2.555c1.563-0.201,2.759,0.388,3.683,1.528
		c1.813,2.239,3.57,4.527,5.326,6.814c2.396,3.117,4.744,6.271,7.157,9.372c0.949,1.22,0.767,1.801-0.707,2.426
		c-2.419,1.03-4.399,0.228-6.416-0.97c-0.685-0.407-0.721-1.051-0.57-1.597c0.991-3.625-2.367-4.944-3.816-7.26
		c-0.316-0.505-0.93-0.285-1.398,0.068c-1.6,1.211-3.201,2.423-4.824,3.606c-0.93,0.68-0.771,1.252-0.159,2.144
		C480.377,178.524,482.308,180.884,484.327,183.267z"/>
	<path fill-rule="evenodd" clip-rule="evenodd" fill="#FFF" d="M97.78,302.176c-0.314,5.137-2.861,10.08-7.579,13.931
		c-1.196,0.976-2.138,0.812-3.146-0.314c-1.652-1.843-1.979-4.016-1.813-6.349c0.07-0.984,0.583-0.935,1.444-0.825
		c4.392,0.555,7.405-3.61,5.584-7.686c-0.855-1.914-2.319-2.394-4.307-1.648c-2.831,1.063-5.052,3.071-7.545,4.656
		c-1.837,1.167-3.625,2.424-5.522,3.486c-3.157,1.77-6.493,2.313-9.638,0.142c-3.202-2.211-4.025-5.63-3.683-9.291
		c0.454-4.848,2.906-8.686,6.435-11.935c0.866-0.796,1.427-0.729,2.169,0.083c1.897,2.077,1.956,4.583,1.734,7.148
		c-0.092,1.065-0.906,0.664-1.362,0.429c-1.423-0.733-2.571-0.58-3.266,0.921c-0.888,1.916-1.813,3.924-0.044,5.83
		c1.32,1.424,2.901,1.063,4.294,0.144c3.64-2.403,7.224-4.889,10.82-7.359c1.738-1.194,3.538-2.262,5.68-2.479
		C93.9,290.468,97.84,294.596,97.78,302.176z"/>
	<path fill-rule="evenodd" clip-rule="evenodd" fill="#FFF" d="M49.977,390.685c10.128,3.682,20.683,5.369,30.363,9.799
		c0.87,0.397,1.762,0.772,2.563,1.285c1.692,1.08,3.006,2.437,2.737,4.683c-0.264,2.211-1.922,2.936-3.735,3.499
		c-5.63,1.748-11.257,3.506-16.887,5.25c-2.321,0.721-4.658,1.391-6.971,2.133c-1.084,0.348-2.098,0.841-2.838,1.785
		c-0.452,0.578-0.307,1.844-1.189,1.744c-1.09-0.118-2.107-0.798-2.829-1.729c-0.673-0.869-0.828-1.894-0.847-2.961
		c-0.033-1.819,0.131-3.648-0.497-5.604c9.129-0.209,17.153-3.826,25.469-7.115c-4.029-1.17-8.056-2.346-12.089-3.503
		c-1.335-0.38-2.671-0.798-4.035-1.037c-3.495-0.611-4.359,0.077-4.767,3.605C49.989,401.596,49.256,399.703,49.977,390.685z"/>
	<path fill-rule="evenodd" clip-rule="evenodd" fill="#FFF" d="M451.773,671.971c-5.657-6.9-12.256-12.67-18.718-18.577
		c-0.995-0.91-1.966-1.807-3.389-0.731c-0.444,0.338-0.883,0.525-1.296-0.122c-0.715-1.121-1.477-2.278-0.924-3.63
		c0.316-0.772,0.949-1.473,1.578-2.056c4.819-4.468,9.705-8.866,14.492-13.37c1.27-1.192,1.661-0.598,2.113,0.601
		c1.146,3.045-0.274,5.353-3.506,6.063c-2.554,0.559-3.632,2.898-4.844,4.872c-0.538,0.877,0.648,1.53,1.208,2.105
		c4.814,4.938,2.869,5.678,8.449-0.055c0.972-0.999,1.818-2.12,2.723-3.182c2.387,2.263,2.459,3.353,0.563,6.183
		c-1.088,1.627-3.499,2.919-3.141,4.784c0.315,1.638,2.35,2.932,3.591,4.404c3.849,4.569,3.873,4.571,8.227,0.44
		c1.978-1.875,3.734-3.935,5.226-6.216c0.728-1.109,1.296-1.135,2.046,0.05c1.516,2.397,1.397,4.229-0.856,6.294
		C460.865,663.912,456.327,667.898,451.773,671.971z"/>
	<path fill-rule="evenodd" clip-rule="evenodd" fill="#FFF" d="M235.11,88.945c-0.084,7.229,1.877,11.963,5.365,16.083
		c3.11,3.673,7.487,4.108,11.394,1.233c0.844-0.621,1.631-1.319,2.451-1.974c0.529-0.423,0.943-1.342,1.645-1.106
		c0.792,0.268,0.832,1.293,0.95,2.041c0.265,1.668-0.449,3.036-1.543,4.244c-5.25,5.794-15.37,6.093-20.925,0.541
		c-6.25-6.248-8.538-13.744-6.051-22.267c2.35-8.058,10.736-11.762,18.609-9.729c1.154,0.297,1.491,0.924,1.054,2.126
		c-0.781,2.15-2.444,3.284-4.348,4.255c-0.852,0.435-0.975,0.101-1.19-0.656c-0.497-1.743-1.821-1.587-3.159-1.147
		C236.361,83.573,235.108,85.986,235.11,88.945z"/>
	<path fill-rule="evenodd" clip-rule="evenodd" fill="#FFF" d="M246.309,692.989c2.148-2.874,5.133-3.258,8.4-3.005
		c3.014,0.232,5.938,1.49,9.372,0.649c-2.608,8.284-5.153,16.344-7.673,24.411c-0.36,1.156-0.694,2.337-0.859,3.531
		c-0.308,2.244,0.588,3.652,2.951,4.129c1.009,0.204,2.851,0.189,2.7,1.399c-0.197,1.58-1.766,2.514-3.488,2.617
		c-0.584,0.033-1.201-0.163-1.777-0.338c-5.224-1.595-10.416-3.302-15.675-4.767c-2.039-0.568-1.416-1.281-0.503-2.249
		c1.118-1.188,2.476-1.469,4.058-1.109c2.353,0.53,3.835-0.429,4.543-2.747c1.772-5.791,3.644-11.555,5.366-17.362
		c0.828-2.793-0.16-4.129-3.034-4.46c-1.296-0.147-2.603-0.199-3.903-0.324C246.643,693.353,246.516,693.158,246.309,692.989z"/>
	<path fill-rule="evenodd" clip-rule="evenodd" fill="#FFF" d="M115.766,611.572c-5.916,1.633-6.599,1.407-9.412-3.271
		c-2.105-3.5-4.102-7.067-6.203-10.571c-0.676-1.127-0.783-1.801,0.66-2.429c8.022-3.48,15.319-8.22,22.49-13.163
		c0.694-0.479,1.633-0.791,1.661-1.859c0.02-0.78-0.934-1.846,0.169-2.264c1.093-0.415,2.51-0.743,3.578-0.031
		c2.647,1.76,3.6,4.794,5.099,7.397c0.279,0.484-0.524,0.695-0.974,0.889c-7.95,3.412-14.9,8.568-22.375,12.81
		c-2.155,1.225-2.374,2.681-1.187,4.719C110.971,606.719,112.88,609.447,115.766,611.572z"/>
	<path fill-rule="evenodd" clip-rule="evenodd" fill="#FFF" d="M395.344,127.633c3.586-2.803,6.17-6.308,8.271-10.145
		c1.647-3.003,3.671-5.71,5.853-8.31c1.736-2.067,2.438-4.338,2.072-7.013c-0.305-2.222,1.524-3.742,3.804-3.119
		c2.674,0.731,4.431,3.009,6.816,4.269c0.74,0.392-0.018,0.874-0.313,1.217c-5.675,6.543-10.002,14.034-14.856,21.152
		c-1.603,2.351-1.356,3.216,0.951,4.925c2.741,2.032,5.615,3.738,9.104,4.208c-3.276,3.791-5.424,4.127-9.428,1.387
		C403.526,133.403,399.485,130.529,395.344,127.633z"/>
	<path fill-rule="evenodd" clip-rule="evenodd" fill="#FFF" d="M332.572,696.008c-4.413,11.578-8.692,22.836-12.999,34.085
		c-1.354,3.539-2.576,3.202-5.794,2.937c-1.862-0.152-0.646-1.44-0.399-2.105c2.902-7.812,5.859-15.605,8.82-23.395
		c1.729-4.546,1.743-4.557-3.06-4.42c-3.593,0.1-7.078,0.815-10.471,2.021c-0.086-5.94,1.878-7.5,6.029-7.902
		C320.531,696.663,326.375,696.414,332.572,696.008z"/>
	<path fill-rule="evenodd" clip-rule="evenodd" fill="#FFF" d="M70.918,265.149c7.798,4.231,15.703,6.983,24.09,8.324
		c1.744,0.28,3.508,0.382,5.232,0.1c3.25-0.535,5.07,1.141,4.429,4.471c-0.456,2.368-1.234,4.673-1.915,7.178
		c-7.187-4.927-16.03-5.288-23.82-8.635c-1.787-0.767-3.797-0.586-5.622,0.211c-1.106,0.483-2.096,0.873-3.06-0.216
		c-0.967-1.091-1.594-2.207-1.168-3.79C69.736,270.374,71.247,268.185,70.918,265.149z"/>
	<path fill-rule="evenodd" clip-rule="evenodd" fill="#FFF" d="M268.085,70.101c-0.325,4.843,0.4,9.383,1.8,13.792
		c1.035,3.258,1.486,6.607,2.078,9.943c0.419,2.369,1.286,4.583,3.306,6.037c2.252,1.621,1.273,3.217-0.102,4.479
		c-2.21,2.027-5.127,1.971-7.913,1.931c-1.225-0.018-0.724-1.208-0.764-1.871c-0.452-7.451-2.309-14.57-5.015-21.486
		c-0.665-1.7-1.442-3.375-2.613-4.806c-1.979-2.419-1.195-5.269,1.857-6.336c1.134-0.396,2.377-0.478,3.563-0.743
		C265.459,70.775,266.625,70.463,268.085,70.101z"/>
	<path fill-rule="evenodd" clip-rule="evenodd" fill="#FFF" d="M553.582,485.421c-5.268-1.457-10.289-2.82-15.426-3.651
		c-3.96-0.642-7.947-1.137-11.894-1.857c-2.037-0.373-3.609-0.191-4.264,2.072c-4.382-2.93-4.584-4.431-1.666-12.011
		c5.547,3.194,11.891,2.959,17.899,4.222c1.867,0.392,3.692,0.985,5.56,1.382c2.009,0.423,3.961,0.266,5.845-0.717
		c0.955-0.499,1.821-1.729,3.181-0.508c1.365,1.223,2.063,2.653,1.65,4.418C553.97,480.89,553.339,482.979,553.582,485.421z"/>
	<path fill-rule="evenodd" clip-rule="evenodd" fill="#FFF" d="M561.419,389.263c-8.988-1.17-17.764-1.417-26.465,0.683
		c-1.162,0.279-2.315,0.741-3.359,1.318c-2.32,1.286-5.072,0.069-5.322-2.614c-0.203-2.166-0.01-4.369-0.044-6.555
		c-0.016-1.045,0.456-1.066,1.308-0.908c8.198,1.529,16.347,0.826,24.466-0.656c1.62-0.297,3.157-0.811,4.622-1.639
		c2.224-1.255,4.566-0.07,4.753,2.486C561.566,383.979,561.419,386.605,561.419,389.263z"/>
	<path fill-rule="evenodd" clip-rule="evenodd" fill="#FFF" d="M87.247,432.697c0,0.921-0.052,1.454,0.009,1.97
		c0.196,1.657-0.339,2.346-2.146,2.085c-5.792-0.841-11.521,0.261-17.255,0.808c-2.098,0.2-4.194,0.196-6.285,0.371
		c-2.126,0.179-4.254,0.362-4.898,2.983c-0.267,1.083-0.85,0.437-1.383,0.266c-2.94-0.934-3.582-3.296-3.751-5.962
		c-0.312-4.896-0.315-4.839,4.474-4.458c4.125,0.328,8.209-0.336,12.267-0.931c2.018-0.298,4.014-0.333,6.017-0.284
		c3.004,0.073,5.652-0.628,7.951-2.68c1.302-1.164,3.578-0.287,4.385,1.587C87.267,429.931,87.299,431.511,87.247,432.697z"/>
	<path fill-rule="evenodd" clip-rule="evenodd" fill="#FFF" d="M516.639,210.879c-5.13,1.161-9.404,3.77-13.617,6.577
		c-2.296,1.528-4.833,2.697-7.284,3.982c-2.297,1.204-4.184,2.804-5.326,5.178c-1.091,2.259-2.714,2.662-4.63,1.088
		c-0.813-0.668-1.429-1.505-1.88-2.476c-0.401-0.859-0.886-1.684-1.374-2.498c-0.435-0.723-0.925-1.411-1.53-2.326
		c8.88-2.78,16.021-8.691,24.201-12.657c1.1-0.533,2.058-1.227,2.161-2.699c0.063-0.865-0.783-2.171,0.997-2.48
		c1.641-0.286,3.158-0.417,4.149,1.25C513.883,206.128,515.225,208.458,516.639,210.879z"/>
	<path fill-rule="evenodd" clip-rule="evenodd" fill="#FFF" d="M151.131,610.463c-8.447,2.831-13.986,9.576-21.299,13.623
		c-1.77,0.979-2.889,2.765-3.635,4.681c-0.383,0.981-0.186,2.306-1.84,2.385c-1.706,0.08-3.108-0.371-4.124-1.778
		c-1.272-1.762-2.186-3.772-3.857-5.464c8.188-4.18,15.26-9.814,22.378-15.385c1.372-1.072,3.044-1.877,1.924-4.177
		c-0.458-0.942,0.535-1.043,1.22-1.177c2.374-0.467,4.075,0.559,5.369,2.435C148.388,607.234,149.34,608.983,151.131,610.463z"/>
	<path fill-rule="evenodd" clip-rule="evenodd" fill="#FFF" d="M429.179,153.356c4.974-2.541,8.402-6.486,11.889-10.418
		c1.909-2.15,4.208-3.955,6.331-5.915c1.666-1.538,2.581-3.496,3.008-5.672c0.509-2.595,1.983-3.356,4.34-1.906
		c3.078,1.897,5.505,4.605,8.059,7.11c8.814,8.644,6.705,17.583-2.266,26.302c-4.162,4.046-9.482,5.8-15.447,4.45
		c-2.372-0.536-4.397-1.785-6.055-3.465C435.717,160.478,432.549,156.96,429.179,153.356z M447.326,161.005
		c0.416-0.045,0.812-0.285,1.213-0.451c6.55-2.723,11.104-7.323,13.154-14.193c0.877-2.932-0.02-5.655-2.201-7.254
		c-1.521-1.115-3.034-1.261-4.458,0.163c-4.961,4.955-9.951,9.881-14.848,14.897c-1.999,2.048-1.581,4.31,0.813,5.918
		c1.3,0.872,2.71,1.128,4.594,0.941C445.929,161.026,446.635,161.08,447.326,161.005z"/>
	<path fill-rule="evenodd" clip-rule="evenodd" fill="#FFF" d="M524.727,435.047c8.762,2.83,17.813,2.834,26.656,4.226
		c1.515,0.238,3.137,0.196,3.813-1.454c0.666-1.625,1.345-1.184,2.392-0.477c1.461,0.988,2.153,2.466,2.055,4.025
		c-0.298,4.681-0.293,9.445-1.957,13.922c-1.904,5.129-5.771,7.429-10.998,6.792c-3.384-0.411-5.426-2.663-6.953-5.366
		c-0.827-1.461-1.459-1.807-2.976-0.976c-1.812,0.995-3.78,1.709-5.685,2.531c-1.697,0.733-3.17,1.756-4.483,3.077
		c-0.628,0.632-0.694,2.384-2.203,1.568c-1.217-0.662-2.226-1.594-2.399-3.204c-0.222-2.053,0.459-3.98,0.618-5.977
		c0.097-1.218,1.369-0.885,2.113-0.992c3.686-0.538,7.03-1.846,10.062-4.011c1.081-0.771,2.556-1.649,2.269-2.903
		c-0.251-1.097-2.061-0.793-3.168-1.141c-2.367-0.741-4.66-1.026-6.273,1.494c-0.446,0.702-0.964,0.535-1.521,0.105
		c-1.32-1.02-2.136-2.308-2.011-4.019C524.249,439.928,524.493,437.595,524.727,435.047z M554.639,449.198
		c-0.041-1.199-0.526-2.151-1.673-2.337c-2.908-0.472-5.846-0.761-8.771-1.132c-1.812-0.232-2.264,0.735-2.211,2.329
		c0.11,3.549,3.057,6.17,7.01,6.16C552.533,454.206,554.743,452.213,554.639,449.198z"/>
	<path fill-rule="evenodd" clip-rule="evenodd" fill="#FFF" d="M473.21,630.619c1.075,1.021,2.195,1.976,3.179,3.057
		c1.384,1.514,3.129,2.137,4.96,1.51c1.546-0.533,1.858,0.273,2.105,1.279c0.524,2.137-0.244,3.933-1.688,5.507
		c-1.119,1.218-2.205,2.465-3.432,3.844c-5.86-6.821-13.487-11.705-20.309-17.536c-1.382-1.18-2.657-1.715-4.132-0.444
		c-0.949,0.814-1.306,0.29-1.733-0.481c-0.987-1.78-0.95-3.575,0.199-5.196c2.476-3.491,4.942-7.011,8.166-9.888
		c5.98-5.338,14.227-3.42,16.381,3.799c0.125,0.413,0.27,0.837,0.301,1.263c0.105,1.472-0.368,3.406,0.395,4.286
		c0.735,0.85,2.724,0.626,4.165,0.848c3.437,0.526,6.881,1.429,10.278-0.219c1.376-0.668,1.703,0.474,1.966,1.338
		c0.674,2.207-0.618,3.738-1.817,5.427c-1.509,2.125-2.895,2.632-5.477,1.555c-3.453-1.441-7.218-1.902-11.024-1.187
		C474.709,629.565,473.835,629.782,473.21,630.619z M463.864,615.753c-1.878,0.286-3.093,1.532-3.695,3.251
		c-0.561,1.598,0.784,2.252,1.798,3.039c1.578,1.225,3.103,2.521,4.69,3.732c2.901,2.208,3.754,1.805,4.309-2
		c0.075-0.516,0.092-1.041,0.166-1.922C471.228,618.172,467.865,615.144,463.864,615.753z"/>
	<path fill-rule="evenodd" clip-rule="evenodd" fill="#FFF" d="M116.185,246.504c-0.154,2.981-0.988,5.903-2.374,8.641
		c-1.408,2.783-3.038,5.455-4.426,8.248c-0.498,1.002-0.892,1.275-1.833,0.644c-7.325-4.92-15.654-7.812-23.524-11.629
		c-0.98-0.476-1.899-0.82-2.949-0.203c-2.097,1.231-3.65,0.347-3.783-2.162c-0.027-0.514-0.013-1.082,0.174-1.548
		c1.71-4.272,3.231-8.648,5.791-12.514c3.396-5.127,8.164-7.506,14.338-6.532c6.296,0.995,11.864,3.455,15.869,8.655
		C115.327,240.519,116.126,243.348,116.185,246.504z M108.975,244.647c-3.823-4.657-8.851-7.118-14.759-7.828
		c-3.144-0.379-6.113,0.094-8.36,2.618c-1.938,2.176-1.76,4.77,0.529,5.879c6.207,3.011,12.419,6.022,18.744,8.768
		c3.636,1.581,5.859-0.195,5.835-4.209C111.117,247.822,110.208,246.15,108.975,244.647z"/>
	<path fill-rule="evenodd" clip-rule="evenodd" fill="#FFF" d="M53.999,341.014c0.2-4.316,0.915-8.067,2.159-11.72
		c1.391-4.083,4.176-6.574,8.463-7.167c4.321-0.597,7.236,1.737,9.161,5.208c1.211,2.183,2.158,2.563,4.447,1.37
		c3.578-1.865,7.828-2.484,10.341-6.196c0.552-0.815,3.032,0.766,3.326,2.283c0.427,2.198-0.211,4.342-0.661,6.478
		c-0.162,0.771-0.828,0.721-1.458,0.788c-4.324,0.461-8.078,2.65-12.095,4.046c-1.13,0.392-1.722,1.276-1.477,2.457
		c0.233,1.119,1.18,1.441,2.22,1.421c1.582-0.027,3.044,0.797,4.658,0.589c0.697-0.091,1.318-0.156,1.945-0.586
		c0.693-0.476,0.903-2.059,2.092-1.34c1.097,0.664,2.021,1.688,2.202,3.108c0.33,2.578-0.45,5.018-0.952,7.491
		c-0.199,0.987-0.768,0.695-1.368,0.474c-8.367-3.082-17.324-3.096-25.922-4.979c-1.157-0.254-2.267,0.131-2.676,1.174
		c-1.095,2.788-2.284,1.133-3.306,0.108C53.563,344.486,53.961,342.463,53.999,341.014z M59.955,332.207
		c-1.651,2.36-0.777,4.961,1.97,5.488c2.723,0.521,5.487,0.84,8.238,1.199c0.543,0.071,1.135,0.205,1.349-0.741
		c0.748-3.307-2.892-8.126-6.298-8.216C62.859,329.875,61.036,330.663,59.955,332.207z"/>
	<path fill-rule="evenodd" clip-rule="evenodd" fill="#FFF" d="M154.118,178.743c-0.087,3.401-1.2,5.938-2.529,8.403
		c-2.285,4.239-5.196,8.043-8.195,11.786c-0.379,0.473-0.609,1.429-1.485,0.374c-4.817-5.809-11.54-9.275-17.257-13.982
		c-1.011-0.832-2.097-1.575-3.081-2.436c-0.943-0.827-2.013-1.043-3.177-0.843c-2.021,0.348-2.905-0.505-2.573-2.718
		c0.475-3.159,1.752-6.031,3.758-8.477c3.891-4.743,8.096-9.007,14.979-8.758c7.023,0.255,16.656,7.219,18.97,13.848
		C153.906,177.019,154.19,178.113,154.118,178.743z M125.648,170.403c-2.457,1.923-2.588,4.611-0.326,6.32
		c5.55,4.188,11.123,8.347,16.692,12.511c1.691,1.264,3.281,0.986,4.607-0.53c1.377-1.576,1.994-3.473,1.594-5.562
		c-1.284-6.697-10.532-14.229-17.606-14.261C128.864,168.727,127.132,169.243,125.648,170.403z"/>
	<path fill-rule="evenodd" clip-rule="evenodd" fill="#FFF" d="M284.508,85.148c-0.108-4.931,0.875-9.604,4.042-13.481
		c6.88-8.425,19.668-6.815,24.519,2.965c2.997,6.046,3.313,12.175,0.815,18.454c-2.596,6.524-7.649,9.952-14.333,9.685
		c-7.046-0.28-12.249-4.298-14.356-10.876C284.479,89.656,284.783,87.39,284.508,85.148z M295.045,95.092
		c2.339,4.203,6.84,4.433,9.645,0.553c1.483-2.048,2.101-4.383,2.345-6.794c0.53-5.236,0.488-10.433-2.351-15.158
		c-1.229-2.046-3.135-3.015-5.473-2.882c-2.283,0.131-3.723,1.473-4.687,3.545c-1.453,3.123-2.204,6.365-2.2,9.797
		C292.277,87.951,293.258,91.879,295.045,95.092z"/>
	<path fill-rule="evenodd" clip-rule="evenodd" fill="#FFF" d="M293.336,711.848c0.289,0.923,1.14,1.279,1.817,1.814
		c3.803,3.005,5.217,7.182,3.849,11.356c-1.414,4.318-4.797,6.759-9.664,7.045c-3.976,0.234-7.826,0.16-11.223-2.44
		c-6.043-4.627-6.035-11.777,0.116-16.246c1.187-0.862,3.191-1.471,3.429-2.514c0.232-1.018-1.379-2.405-2.066-3.694
		c-2.512-4.707-0.726-9.145,4.381-10.765c4.086-1.298,7.941-0.637,11.441,1.816c3.831,2.689,4.336,7.181,1.189,10.615
		C295.608,709.923,294.431,710.848,293.336,711.848z M289.131,727.28c2.021-1.427,2.874-3.572,2.673-5.876
		c-0.228-2.637-1.417-5-3.705-6.55c-0.631-0.428-1.471-0.219-2.234,0.171c-2.924,1.492-4.845,6.111-3.948,9.325
		c0.692,2.475,2.33,3.494,5.121,3.607C287.586,728.07,288.417,727.783,289.131,727.28z M288.19,708.846
		c0.998,0.467,4.013-3.605,3.723-5.18c-0.326-1.774-0.774-3.713-3.188-3.818c-1.75-0.076-3.624,2.127-3.566,4.354
		C285.646,705.926,286.243,707.938,288.19,708.846z"/>
	<path fill-rule="evenodd" clip-rule="evenodd" fill="#FFF" d="M221.182,125.846c-1.14-2.317-1.978-4.715-3.525-6.747
		c-1.151-1.513-2.311-2.132-4.132-0.809c-1.683,1.224-3.602,2.123-5.418,3.165c-2.599,1.489-2.634,4.341-0.072,5.884
		c2.992,1.801,3.084,3.406,0.314,5.538c-4.651,3.579-4.859,3.592-6.038-1.895c-1.679-7.814-4.031-15.482-5.13-23.426
		c-0.141-1.017-0.57-1.958-1.594-2.573c-2.313-1.389-2.585-3.053-0.966-5.192c2.462-3.254,8.03-3.969,11.247-1.481
		c6.317,4.887,12.127,10.328,17.655,16.08c1.052,1.097,2.187,2.283,3.752,2.076c2.036-0.268,1.947,1.016,1.83,2.169
		c-0.162,1.603-0.87,2.981-2.378,3.848C224.92,123.523,223.161,124.641,221.182,125.846z M201.273,103.939
		c0.946,4.475,1.85,8.959,2.871,13.417c0.229,0.994,1.007,0.576,1.635,0.205c1.867-1.104,3.714-2.246,5.634-3.249
		c1.211-0.634,0.734-1.104,0.06-1.715c-3.231-2.931-6.453-5.873-9.677-8.81C201.622,103.838,201.447,103.889,201.273,103.939z"/>
	<path fill-rule="evenodd" clip-rule="evenodd" fill="#FFF" d="M106.747,199.883c7.554,1.179,15.51,2.987,23.4,5.1
		c1.522,0.408,3.134,0.88,4.361-0.581c0.625-0.745,0.882-0.163,1.135,0.177c1.362,1.826,2.27,3.743,0.917,5.996
		c-0.314,0.524-0.587,1.073-0.916,1.588c-2.322,3.646-2.322,3.64-5.829,1.249c-0.499-0.341-1.033-0.639-1.575-0.907
		c-3.416-1.684-3.748-1.579-5.656,1.729c-0.912,1.58-1.824,3.16-2.726,4.745c-1.429,2.513-0.202,4.584,2.798,4.73
		c3.693,0.181,4.672,1.87,3.098,5.345c-2.208,4.877-2.304,4.964-5.826,1.106c-5.48-6.004-11.307-11.697-16.4-18.055
		c-0.681-0.851-1.43-1.464-2.633-1.388c-2.553,0.163-3.806-1.357-3.355-3.981C98.208,202.842,102.162,199.71,106.747,199.883z
		 M110.231,212.519c5.068,5.845,5.473,5.771,8.75-1.33c0.53-1.147,0.334-1.479-0.818-1.798c-4.075-1.132-8.19-2.024-13.16-2.643
		C107.105,209.064,108.706,210.759,110.231,212.519z"/>
	<path fill-rule="evenodd" clip-rule="evenodd" fill="#FFF" d="M522.106,516.817c-2.015,0.002-4.028,0.004-6.045,0.002
		c-0.787,0-1.534,0.017-2.255,0.495c-0.736,0.489-0.872,2.371-2.471,1.064c-1.405-1.15-2.623-2.228-2.143-4.354
		c0.426-1.874,1.067-3.663,1.624-5.49c0.383-1.254,0.855-1.22,1.847-0.71c1.873,0.957,3.863,1.487,5.995,1.675
		c1.714,0.154,2.532-0.354,2.862-2.056c0.447-2.298,1.079-4.56,1.657-6.831c0.241-0.952,1.08-2.017-0.115-2.769
		c-1.19-0.749-2.279-1.838-4.033-1.159c-2.896,1.119-4.568-0.363-4.119-3.478c0.885-6.158,0.869-6.13,6.197-2.77
		c5.083,3.21,10.197,6.369,15.315,9.521c1.339,0.826,2.688,1.604,3.802,2.752c1.052,1.086,2.396,1.624,3.812,0.869
		c2.35-1.25,3.091,0.516,3.604,2.019c1.398,4.106-2.352,9.749-6.678,10.113C534.689,516.242,528.421,516.927,522.106,516.817z
		 M528.024,500.344c-0.683,2.687-1.272,5.085-1.909,7.473c-0.182,0.679-0.6,1.427,0.56,1.496c4.426,0.26,8.811-0.155,13.218-1.332
		C536.001,505.477,532.111,502.977,528.024,500.344z"/>
	<path fill-rule="evenodd" clip-rule="evenodd" fill="#FFF" d="M390.849,119.648c-3.077,3.252-4.007,3.269-9.278,0.729
		c-1.926-0.928-3.075-1.837-1.148-3.815c0.179-0.184,0.287-0.44,0.412-0.671c2.679-4.974,2.312-6.012-2.895-8.234
		c-0.961-0.411-1.908-0.856-2.873-1.256c-3.104-1.284-5.386,0.096-5.646,3.401c-0.322,4.094-1.062,4.564-5.1,3.25
		c-4.273-1.392-4.363-1.467-1.597-4.771c5.448-6.505,10.447-13.395,16.48-19.4c0.896-0.89,1.373-1.748,0.718-2.99
		c-0.713-1.347,0.093-2.088,1.188-2.666c4.028-2.129,10.331,1.886,10.351,6.774c0.029,7.446-0.875,14.832-1.87,22.204
		C389.239,114.806,388.079,117.581,390.849,119.648z M378.943,96.452c-1.381,1.506-4.15,3.734-3.532,4.682
		c1.19,1.818,3.991,2.442,6.335,3.14c1.357,0.405,1.686-0.134,1.833-1.272c0.505-3.9,0.887-7.804,0.523-12.109
		C381.828,92.552,380.568,94.678,378.943,96.452z"/>
	<path fill-rule="evenodd" clip-rule="evenodd" fill="#FFF" d="M180.922,689.789c2.648-1.8,4.261-3.925,5.305-6.499
		c0.442-1.093,0.325-1.863-0.773-2.609c-2.019-1.374-3.876-2.981-5.859-4.408c-0.711-0.511-1.444-1.733-2.342-1.121
		c-1.153,0.787-2.538,1.55-2.731,3.298c-0.439,3.951-1.909,4.614-5.441,2.552c-4.869-2.841-4.842-2.803-0.436-5.998
		c5.508-3.995,10.951-8.078,16.455-12.077c1.048-0.763,2.258-1.299,3.373-1.971c0.908-0.551,1.784-1.149,1.789-2.388
		c0.009-2.488,1.412-3.659,3.711-3.092c4.2,1.035,7.063,5.987,5.915,10.177c-2.049,7.481-4.766,14.727-7.628,21.924
		c-0.68,1.709-1.564,3.414,0.045,5.108c0.606,0.637,0.017,0.901-0.42,1.146c-1.846,1.033-3.757,1.586-5.646,0.187
		C184.489,692.723,182.825,691.313,180.922,689.789z M193.93,662.766c-4.651,3.311-8.584,6.111-12.707,9.045
		c2.618,1.955,4.983,3.721,7.591,5.673C190.476,672.704,192.077,668.1,193.93,662.766z"/>
	<path fill-rule="evenodd" clip-rule="evenodd" fill="#FFF" d="M349.002,702.951c1.222-0.712,2.386-1.441,3.594-2.081
		c3.599-1.908,6.983-1.576,10.226,0.916c5.19,3.991,6.896,14.211,3.206,19.536c-4.744,6.841-14.841,6.638-19.427-0.493
		c-4.051-6.297-5.728-13.192-4.573-20.674c0.892-5.776,5.897-9.702,12.874-10.105c0.61-0.033,1.236-0.079,1.837,0.004
		c0.932,0.134,2.285-0.459,2.565,1.008c0.27,1.421-0.723,2.298-1.873,2.85c-0.771,0.372-1.644,0.581-2.494,0.737
		C349.383,695.656,348.366,697.038,349.002,702.951z M358.259,707.466c-1.148-2.082-2.944-2.756-5.067-2.111
		c-2.143,0.646-2.89,2.571-2.701,4.581c0.303,3.203,1.051,6.314,3.07,8.997c1.226,1.629,2.535,3.003,4.746,2.4
		c2.407-0.653,2.842-2.577,2.727-3.863C360.974,713.264,359.829,710.311,358.259,707.466z"/>
	<path fill-rule="evenodd" clip-rule="evenodd" fill="#FFF" d="M422.216,696.583c-1.636-4.166-4.062-7.82-6.999-11.176
		c-1.952-2.229-3.699-4.623-5.275-7.153c-1.638-2.625-3.683-4.848-6.767-5.892c-1.92-0.649-2.586-2.313-1.305-3.921
		c3.93-4.935,8.663-8.955,14.928-10.469c5.005-1.21,9.734,1.817,11.984,7.108c1.917,4.51,0.179,10.104-4.031,13.221
		c-1.152,0.853-3.432,1.218-3.338,2.421c0.113,1.419,1.678,2.735,2.643,4.076c0.902,1.254,2.216,1.953,3.636,1.376
		c1.767-0.721,1.947,0.319,2.114,1.494c0.257,1.791-0.438,3.258-1.772,4.41c-0.924,0.797-1.92,1.507-2.887,2.254
		C424.183,695.076,423.215,695.815,422.216,696.583z M412.249,669.006c1.38,2.355,3.103,4.454,5.185,6.215
		c1.798,1.521,3.892,1.034,4.966-1.037c1.979-3.818-2.563-10.588-7.081-10.552C411.807,663.657,410.471,665.969,412.249,669.006z"/>
	<path fill-rule="evenodd" clip-rule="evenodd" fill="#FFF" d="M169.221,243.001c-3.399-3.863-7.26-6.643-12.597-6.242
		c-2.236,0.168-3.634-1.681-2.802-3.801c0.346-0.883,0.991-1.645,1.38-2.514c0.469-1.051,1.053-0.874,1.782-0.345
		c5.617,4.074,12.101,6.538,18.165,9.783c0.953,0.51,1.828,0.629,2.974,0.282c2.268-0.685,3.072,0.254,2.552,2.626
		c-0.914,4.168-2.005,5.04-6.3,5.04c-4.822,0-9.644-0.014-14.465,0.016c-0.626,0.003-1.532-0.395-1.773,0.601
		c-0.26,1.064,0.756,0.904,1.311,1.206c1.992,1.08,3.931,2.261,5.952,3.285c1.804,0.914,3.689,1.499,5.797,1.031
		c2.026-0.449,3.1,0.767,2.473,2.773c-0.305,0.979-0.845,1.885-1.295,2.817c-0.416,0.86-0.828,1.04-1.787,0.431
		c-5.573-3.54-11.662-6.123-17.437-9.292c-1.305-0.717-2.522-1.078-3.955-0.477c-1.733,0.728-2.619-0.141-2.508-1.775
		c0.219-3.213,1.168-5.825,5.541-5.535C157.87,243.284,163.555,243.001,169.221,243.001z"/>
	<path fill-rule="evenodd" clip-rule="evenodd" fill="#FFF" d="M140.569,333.83c3.583,0.597,5.922-1.89,5.088-5.255
		c-0.497-2.001-2.401-2.928-4.273-1.831c-2.025,1.186-3.897,2.635-5.807,4.011c-1.841,1.328-3.684,2.674-5.876,3.338
		c-5.408,1.638-10.128-2.752-9.161-8.508c0.428-2.541,1.503-4.83,3.097-6.852c1.486-1.885,2.775-1.775,4.008,0.28
		c0.563,0.936,0.637,1.961,0.668,3.026c0.063,2.06-1.457,0.782-2.209,1.065c-1.322,0.496-2.229,3.002-1.407,4.574
		c0.854,1.633,2.301,1.861,3.752,0.876c2.812-1.911,5.566-3.91,8.295-5.937c2.75-2.042,5.646-3.182,8.971-1.549
		c3.236,1.591,4.859,5.152,4.045,9.131c-0.617,3.015-1.768,5.815-4.156,7.982c-2.165,1.964-3.356,1.788-4.65-0.871
		C140.438,336.25,140.304,335.153,140.569,333.83z"/>
	<path fill-rule="evenodd" clip-rule="evenodd" fill="#FFF" d="M143.056,255.02c4.082,3.229,4.135,4.017,1.013,7.455
		c-1.182,1.301-1.988,3.151-1.11,4.533c1.054,1.66,3.33,1.961,5.235,2.458c0.654,0.17,0.812-0.589,1.015-1.015
		c0.597-1.252,1.103-2.548,1.658-3.82c0.273-0.626-0.071-1.901,0.995-1.702c1.036,0.193,2.115,0.828,2.229,2.224
		c0.105,1.279-0.323,2.441-0.906,3.489c-1.107,1.985-0.394,3.014,1.553,3.666c1.313,0.438,2.688,0.833,3.853,1.546
		c2.06,1.264,3.012,0.357,3.978-1.431c1.127-2.084,1.823-4.318,2.549-6.53c0.517-1.577,1.082-1.226,2.002-0.479
		c1.377,1.116,1.513,2.635,0.981,4.056c-1.455,3.898-3.108,7.724-4.667,11.584c-0.403,0.999-0.9,0.939-1.772,0.454
		c-5.943-3.313-12.44-5.33-18.682-7.949c-1.374-0.578-2.735-0.477-4.114-0.45c-1.754,0.035-2.541-0.635-1.875-2.381
		C138.962,265.551,140.979,260.388,143.056,255.02z"/>
	<path fill-rule="evenodd" clip-rule="evenodd" fill="#FFF" d="M419.919,182.861c-4.319,2.123-4.641,1.982-6.546-1.993
		c-0.73-1.521-1.937-3.231-3.553-3.119c-2.056,0.142-3.169,2.303-4.451,3.811c-0.468,0.549,0.332,1.256,0.759,1.748
		c0.686,0.792,1.451,1.52,2.228,2.229c0.77,0.701,1.59,1.345,2.439,2.058c-2.091,1.869-3.905,1.578-5.805-0.167
		c-2.87-2.639-2.938-2.615-5.665,0.164c-4.537,4.622-4.288,4.117,0.023,8.484c1.279,1.295,2.743,2.412,4.146,3.631
		c-2.7,1.915-4.242,1.862-6.5-0.428c-2.89-2.932-5.668-5.973-8.559-9.034c5.541-4.438,10.18-9.775,15.017-14.91
		c0.712-0.755,1.592-1.458,1.242-2.7c-0.303-1.074-0.061-1.777,1.038-2.32c1.206-0.597,2.084-0.124,2.836,0.615
		c2.06,2.027,4.055,4.121,6.045,6.216C416.359,178.981,418.063,180.858,419.919,182.861z"/>
	<path fill-rule="evenodd" clip-rule="evenodd" fill="#FFF" d="M151.457,299.061c4.806,0.948,4.834,4.806,3.943,8.362
		c-1.199,4.788-5.102,7.507-10.186,7.824c-5.999,0.375-11.17-1.236-15.399-5.649c-4.499-4.696-4.246-11.507,0.739-15.674
		c0.531-0.442,1.292-1.946,2.152-0.58c0.82,1.3,2.749,2.702,0.633,4.495c-1.145,0.97-3.463,0.851-2.973,3.316
		c0.458,2.306,1.837,3.877,3.79,5.062c3.275,1.988,6.854,3.048,10.642,3.19c5.126,0.19,7.741-2.962,6.904-8.041
		C151.59,300.683,151.554,299.988,151.457,299.061z"/>
	<path fill-rule="evenodd" clip-rule="evenodd" fill="#FFF" d="M190.674,227.737c0.132,0.923-2.691,5.041-3.593,5.196
		c-0.686,0.12-1.067-0.485-1.495-0.861c-5.137-4.51-11.213-7.671-16.703-11.673c-0.98-0.715-1.784-0.62-2.451,0.347
		c-0.89,1.287-1.824,2.56-2.561,3.935c-0.908,1.693-1.509,1.132-2.26-0.085c-0.844-1.367-0.669-2.789,0.089-3.969
		c3.013-4.686,6.152-9.292,9.254-13.92c0.222-0.331,0.548-0.842,0.968-0.371c0.739,0.828,1.759,1.698,1.374,2.928
		c-0.412,1.313-1.079,2.569-1.784,3.761c-0.736,1.242-0.9,1.98,0.651,2.87c3.922,2.25,7.261,5.403,11.301,7.5
		c1.62,0.84,3.268,1.572,5.059,1.999C189.686,225.669,190.699,226.23,190.674,227.737z"/>
	<path fill-rule="evenodd" clip-rule="evenodd" fill="#FFF" d="M406.521,209.834c6.709-3.968,11.879-9.377,17.745-13.905
		c1.231-0.951,1.068-1.927,0.326-2.896c-0.899-1.172-1.919-2.271-2.997-3.282c-1.253-1.175-0.626-1.727,0.565-2.172
		c1.761-0.659,3.149,0.197,4.189,1.398c3.601,4.161,7.069,8.437,10.64,12.624c0.824,0.966,0.065,1.234-0.531,1.441
		c-2.146,0.741-3.741-0.261-5.019-1.861c-1.444-1.809-2.569-2.384-4.629-0.377c-3.499,3.406-7.404,6.395-11.179,9.51
		c-0.964,0.797-1.363,1.813-1.474,2.948c-0.237,2.417-1.488,2.158-3.041,1.242C409.256,213.407,408.198,211.549,406.521,209.834z"/>
	<path fill-rule="evenodd" clip-rule="evenodd" fill="#FFF" d="M435.639,243.515c-4.32,1.646-4.779,1.516-6.947-1.947
		c-1.431-2.285-2.722-4.66-4.222-6.897c-0.914-1.363-0.889-2.06,0.675-2.944c4.992-2.822,10.154-5.37,14.668-8.993
		c1.719-1.379,3.248-2.933,4.735-4.528c1.317-1.413,2.476-1.174,3.464,0.186c0.912,1.255,1.596,2.675,2.398,4.011
		c0.639,1.064-0.374,1.012-0.864,1.31c-5.794,3.525-11.549,7.122-17.412,10.529c-1.916,1.114-2.019,2.256-1.036,3.968
		C432.239,240.201,433.664,241.942,435.639,243.515z"/>
	<path fill-rule="evenodd" clip-rule="evenodd" fill="#FFF" d="M197.018,218.878c-4.967-5.71-11.271-9.569-16.977-14.149
		c-0.61-0.489-1.315-1.159-2.345-0.762c-0.836,0.323-1.761,0.485-2.264-0.559c-0.472-0.98-0.628-2.045,0.043-2.982
		c0.912-1.271,1.914-2.48,2.908-3.691c0.794-0.966,1.207,0.005,1.623,0.419c4.779,4.765,10.366,8.531,15.624,12.704
		c0.852,0.676,1.722,1.026,2.857,1.029c2.409,0.006,3.29,1.668,2.093,3.794c-0.34,0.604-0.755,1.176-1.209,1.698
		C198.638,217.219,197.844,218.005,197.018,218.878z"/>
	<path fill-rule="evenodd" clip-rule="evenodd" fill="#FFF" d="M159.497,290.933c-0.079,0.519-0.113,1.048-0.243,1.554
		c-0.925,3.602-0.927,3.59-4.341,2.013c-5.835-2.698-12.067-4.297-18.096-6.459c-0.78-0.28-1.727-0.136-2.595-0.118
		c-3.06,0.062-3.327-0.284-2.473-3.317c1.22-4.34,1.161-4.191,5.339-2.54c6.513,2.574,13.039,5.147,19.927,6.619
		C158.224,288.942,159.792,288.96,159.497,290.933z"/>
	<path fill-rule="evenodd" clip-rule="evenodd" fill="#FFF" d="M128.015,439.908c0.995-10.891,4.465-20.904,8.57-30.717
		c2.005-4.793,4.218-9.515,6.612-14.126c0.862-1.66,0.541-2.419-0.774-3.355c-1.991-1.421-3.892-2.967-5.867-4.41
		c-0.995-0.729-1.284-1.274-0.378-2.446c1.972-2.553,3.741-5.267,5.539-7.948c0.744-1.111,1.315-1.277,2.436-0.318
		c1.918,1.643,4.143,2.934,6.021,4.615c1.375,1.228,2.126,0.847,3.219-0.288c7-7.271,14.45-14.034,22.858-19.669
		c5.22-3.5,10.597-6.713,16.726-8.394c1.228-0.335,2.434-0.831,3.827-0.35c1.357,0.47,2.45,1.38,2.826,2.522
		c0.238,0.724-1.264,1.245-2.031,1.786c-12.715,8.952-23.73,19.664-33.311,31.902c-1.161,1.483-1.025,2.201,0.384,3.238
		c6.331,4.656,12.608,9.39,18.918,14.077c0.44,0.329,0.962,1.052,1.546,0.445c2.13-2.208,4.027-0.632,5.905,0.327
		c5.96,3.047,11.911,6.111,17.806,9.277c1.292,0.696,2.061,0.688,3.095-0.423c2.33-2.501,4.761-4.916,7.268-7.241
		c1.06-0.985,0.95-1.69,0.278-2.824c-4.038-6.813-7.954-13.695-12.007-20.496c-0.935-1.568-0.914-2.442,0.735-3.518
		c4.019-2.625,7.958-5.385,11.799-8.262c1.627-1.22,2.452-0.928,3.76,0.498c5.153,5.623,10.532,11.04,15.688,16.66
		c1.353,1.475,2.364,1.424,3.929,0.512c1.788-1.041,3.77-1.74,5.631-2.664c3.272-1.625,4.371-3.914,3.758-7.514
		c-1.141-6.701-2.217-13.41-3.401-20.104c-0.378-2.135,0.185-3.226,2.433-3.828c4.356-1.166,8.651-2.589,12.908-4.087
		c1.806-0.634,2.545-0.095,3.29,1.525c3.163,6.886,6.517,13.685,9.649,20.583c0.765,1.688,1.628,2.151,3.388,1.788
		c2.9-0.603,5.838-1.024,8.775-1.426c1.631-0.223,2.501-0.668,2.813-2.641c1.16-7.327,2.345-14.649,3.13-22.03
		c0.155-1.462,0.598-2.261,2.418-2.205c5.17,0.164,10.351,0.147,15.523,0.019c1.895-0.047,2.316,0.678,2.488,2.395
		c0.737,7.411,1.686,14.799,2.424,22.209c0.167,1.684,0.824,2.145,2.418,2.313c2.853,0.308,5.68,0.88,8.5,1.434
		c2.415,0.477,4.017,0.014,5.2-2.526c2.906-6.235,6.231-12.273,9.219-18.473c0.794-1.647,1.514-2.124,3.281-1.515
		c4.43,1.524,8.902,2.929,13.394,4.249c1.675,0.494,2.059,1.322,1.82,2.986c-1.049,7.285-1.901,14.6-2.991,21.879
		c-0.293,1.943,0.065,3.027,1.939,3.848c2.623,1.15,5.17,2.508,7.638,3.969c1.388,0.822,2.179,0.607,3.213-0.56
		c4.94-5.576,10.018-11.034,14.929-16.636c1.073-1.225,1.704-1.135,2.844-0.219c4.158,3.34,8.357,6.627,12.607,9.848
		c1.221,0.928,1.024,1.709,0.399,2.855c-3.39,6.229-6.664,12.518-10.091,18.724c-0.796,1.438-0.925,2.315,0.471,3.494
		c2.879,2.43,5.612,5.034,8.312,7.666c1.004,0.98,1.768,0.972,2.935,0.292c4.809-2.8,9.191-6.597,14.553-8.125
		c8.794-2.508,16.108-7.301,23.033-12.979c1.47-1.205,3.13-2.273,4.865-3.035c1.968-0.863,1.53-1.661,0.504-2.96
		c-9.772-12.378-20.835-23.394-33.859-32.37c-0.691-0.479-2.146-0.672-1.649-1.978c0.402-1.058,1.345-1.845,2.559-2.056
		c1.489-0.259,2.92-0.033,4.385,0.396c8.703,2.554,15.952,7.63,22.966,13.115c5.806,4.541,11.322,9.416,16.233,14.928
		c1.069,1.2,1.788,1.2,2.989,0.194c1.939-1.624,4.073-3.015,6.078-4.563c1.049-0.81,1.701-1.1,2.61,0.352
		c1.666,2.658,3.536,5.207,5.506,7.652c1.039,1.292,0.615,1.875-0.479,2.68c-1.977,1.453-3.789,3.138-5.822,4.5
		c-1.478,0.989-1.334,1.854-0.616,3.232c4.869,9.361,9.102,18.994,11.996,29.168c1.676,5.888,3.438,11.768,3.018,18.012
		c-0.041,0.612,0.033,1.242-0.087,1.836c-0.298,1.464-1,2.691-2.625,2.9c-1.64,0.211-1.991-1.206-2.394-2.306
		c-3.379-9.246-7.479-18.16-12.134-26.827c-2.677-4.984-5.614-9.811-8.631-14.591c-0.802-1.271-1.427-1.864-2.974-0.667
		c-6.651,5.151-13.408,10.165-20.145,15.206c-0.921,0.688-1.461,1.162-0.68,2.496c0.974,1.669-0.257,2.978-1.468,4.07
		c-4.489,4.058-8.95,8.146-13.513,12.116c-1.338,1.163-1.745,2.055-0.68,3.675c1.525,2.318,2.667,4.869,3.656,7.479
		c1.09,2.88,2.469,3.619,5.467,3.124c6.798-1.126,13.597-2.249,20.394-3.372c1.677-0.276,2.835-0.207,3.369,1.995
		c1.111,4.567,2.588,9.05,4.033,13.53c0.47,1.449,0.137,2.093-1.223,2.771c-6.734,3.36-13.381,6.896-20.121,10.246
		c-1.655,0.824-2.108,1.802-1.677,3.52c0.532,2.116,0.973,4.263,1.319,6.417c0.51,3.172,2.545,4.672,5.49,5.078
		c5.71,0.791,11.425,1.561,17.155,2.156c2.385,0.249,3.458,0.913,3.289,3.636c-0.287,4.63-0.225,9.3-0.018,13.938
		c0.104,2.326-0.63,3.125-2.902,3.373c-6.97,0.764-13.907,1.788-20.872,2.591c-1.377,0.158-1.942,0.523-2.113,1.973
		c-0.359,3.041-0.869,6.073-1.497,9.072c-0.406,1.929,0.153,2.988,1.959,3.827c6.626,3.07,13.157,6.35,19.798,9.391
		c1.595,0.729,1.992,1.341,1.387,3.037c-1.7,4.777-3.335,9.589-4.719,14.467c-0.584,2.063-1.612,2.252-3.359,1.918
		c-6.706-1.276-13.438-2.415-20.128-3.764c-2.736-0.552-4.297,0.46-5.45,2.83c-3.701,7.612-3.619,8.189,2.368,14.354
		c3.666,3.774,7.246,7.632,10.95,11.368c1.083,1.092,1.165,1.902,0.249,3.136c-2.872,3.869-5.696,7.776-8.423,11.751
		c-0.86,1.256-1.477,1.459-2.881,0.706c-6.528-3.501-13.159-6.81-19.695-10.295c-1.397-0.744-2.248-0.73-3.332,0.51
		c-2.306,2.642-4.701,5.218-7.222,7.652c-1.157,1.121-0.97,1.975-0.326,3.176c3.411,6.376,6.723,12.803,10.184,19.148
		c0.777,1.427,0.756,2.195-0.656,3.15c-4.135,2.796-8.214,5.684-12.225,8.657c-1.256,0.932-1.94,0.888-3.003-0.286
		c-4.941-5.458-10.023-10.795-14.962-16.255c-1.065-1.176-1.862-1.437-3.292-0.626c-2.74,1.553-5.564,2.972-8.428,4.287
		c-1.298,0.596-1.545,1.344-1.335,2.659c1.192,7.433,2.277,14.885,3.476,22.318c0.25,1.54-0.017,2.354-1.668,2.862
		c-4.512,1.392-8.992,2.903-13.418,4.547c-1.598,0.592-2.328,0.244-3.09-1.187c-3.146-5.907-6.395-11.76-9.599-17.633
		c-2.015-3.697-2.986-4.174-7.169-3.444c-0.862,0.152-1.714,0.373-2.577,0.519c-2.928,0.493-4.627,2.091-5.146,5.117
		c-1.112,6.47-2.439,12.905-3.53,19.379c-0.295,1.757-0.971,2.272-2.714,2.225c-4.47-0.124-8.959-0.249-13.414,0.039
		c-2.484,0.163-2.942-1.067-3.259-2.929c-1.218-7.128-2.496-14.246-3.652-21.387c-0.182-1.131-0.493-1.755-1.659-1.928
		c-3.549-0.526-7.113-0.99-10.625-1.711c-1.599-0.326-2.109,0.33-2.702,1.567c-3.136,6.552-6.397,13.043-9.501,19.611
		c-0.706,1.492-1.4,1.817-2.988,1.313c-4.48-1.421-9.004-2.719-13.553-3.901c-1.473-0.383-1.985-0.856-1.723-2.452
		c1.188-7.23,2.16-14.497,3.409-21.716c0.382-2.208-0.227-3.471-2.168-4.396c-2.835-1.353-5.661-2.74-8.394-4.284
		c-1.334-0.753-2.109-0.471-3.139,0.517c-5.508,5.279-11.122,10.448-16.614,15.744c-1.112,1.072-1.721,1.166-2.961,0.139
		c-3.5-2.896-7.116-5.658-10.785-8.339c-1.521-1.11-1.609-2.057-0.733-3.669c3.49-6.415,6.808-12.92,10.26-19.357
		c0.696-1.3,0.66-2.05-0.597-3.041c-2.612-2.057-5.055-4.332-7.52-6.57c-1.104-1.001-2.05-1.159-3.474-0.413
		c-6.043,3.17-12.216,6.093-18.232,9.313c-1.89,1.012-2.825,0.622-3.962-0.972c-2.538-3.553-5.159-7.054-7.906-10.446
		c-1.002-1.238-0.954-1.985,0.079-3.093c4.782-5.132,9.475-10.347,14.25-15.482c2.781-2.989,2.892-3.475,0.925-7.042
		c-0.253-0.458-0.474-0.935-0.748-1.381c-1.223-1.983-1.451-5.15-3.45-5.886c-1.949-0.715-4.588,0.404-6.915,0.781
		c-5.621,0.915-11.243,1.823-16.847,2.83c-1.36,0.245-1.969,0.062-2.463-1.398c-1.64-4.846-3.409-9.652-5.326-14.396
		c-0.679-1.682-0.142-2.229,1.269-2.919c6.339-3.095,12.626-6.299,18.932-9.462c3.232-1.623,3.599-2.499,2.869-6.017
		c-0.514-2.474-0.974-4.972-1.212-7.483c-0.128-1.35-0.596-1.747-1.88-1.895c-7.051-0.812-14.083-1.789-21.139-2.548
		c-2.486-0.269-3.828-0.801-3.609-3.838c0.34-4.713,0.119-9.467,0.07-14.204c-0.013-1.247,0.256-1.749,1.679-1.956
		c7.679-1.121,15.329-2.441,22.999-3.628c1.225-0.188,1.796-0.62,1.975-1.912c0.372-2.677,0.932-5.326,1.431-7.981
		c0.396-2.106-0.444-3.411-2.368-4.364c-6.563-3.254-13.036-6.69-19.625-9.893c-1.744-0.847-2.193-1.509-1.415-3.426
		c1.827-4.504,3.401-9.115,4.949-13.724c0.556-1.654,1.253-1.996,3.004-1.595c6.868,1.569,13.785,2.926,20.687,4.349
		c1.94,0.399,3.458-0.177,4.363-2.029c1.448-2.961,2.841-5.949,4.363-8.872c0.563-1.081,0.312-1.667-0.531-2.435
		c-5.574-5.066-11.098-10.187-16.638-15.29c-0.712-0.655-1.702-1.424-1.276-2.388c0.869-1.963-0.46-2.766-1.615-3.638
		c-5.854-4.432-11.789-8.755-17.586-13.257c-1.572-1.218-2.233-1.098-3.326,0.567c-8.049,12.278-14.525,25.349-19.923,38.975
		c-0.354,0.894-0.671,1.804-1.036,2.695c-0.41,1.004-0.939,2.027-2.209,1.885c-1.347-0.15-2.223-1.086-2.407-2.407
		C128.147,443.07,128.119,441.398,128.015,439.908z M404.668,487.911c-1.9-12.496-6.023-24.183-12.657-34.968
		c-0.838-1.362-1.452-1.747-2.983-0.561c-7.374,5.709-14.923,11.194-22.291,16.915c-1.371,1.065-1.875,0.737-2.788-0.332
		c-2.163-2.528-4.362-5.038-6.688-7.42c-1.31-1.343-0.979-1.947,0.41-2.963c7.953-5.81,15.797-11.768,23.751-17.578
		c1.354-0.989,1.427-1.512,0.343-2.79c-4.1-4.83-8.534-9.325-13.513-13.219c-26.309-20.577-55.844-26.277-87.957-18.101
		c-19.842,5.054-36.394,15.69-49.157,31.928c-0.985,1.252-1.138,1.934,0.285,2.882c2.177,1.451,4.235,3.078,6.34,4.638
		c5.68,4.207,11.349,8.43,17.047,12.615c1.042,0.765,1.259,1.301,0.22,2.348c-2.402,2.423-4.695,4.957-6.952,7.518
		c-1.04,1.18-1.819,1.133-3.058,0.187c-6.168-4.711-12.433-9.298-18.63-13.972c-4.725-3.566-4.774-3.632-7.496,1.5
		c-10.64,20.055-13.859,41.302-10.169,63.666c4.171,25.287,16.33,46.066,36.282,61.882c22.503,17.84,48.304,24.379,76.799,20.105
		c18.987-2.85,35.75-10.628,49.976-23.354c22.412-20.055,33.685-45.354,34.024-75.457
		C405.88,498.173,405.447,493.033,404.668,487.911z"/>
	<path fill-rule="evenodd" clip-rule="evenodd" fill="#FFF" d="M368.825,186.706c-4.761,0.242-9.139-0.034-13.508,0.515
		c-2.034,0.256-1.884,0.833-1.073,2.22c2.541,4.336,5.282,8.585,6.399,13.592c0.114,0.508,0.343,1.068,0.232,1.538
		c-0.974,4.19,1.217,7.332,3.288,10.588c2.186,3.435,4.3,6.927,5.319,10.952c0.964,3.809-0.329,5.66-4.184,6.011
		c-1.448,0.131-3.308-0.593-4.243,0.509c-0.879,1.032,0.318,2.638,0.402,4.031c0.247,4.042-0.563,7.807-2.619,11.29
		c-0.586,0.994-1.128,1.969-0.955,3.181c1.58,11.107-5.536,13.012-13.321,12.822c-2.941-0.071-5.875-0.798-8.795-1.32
		c-1.712-0.306-2.707,0.112-3.27,1.918c-3.175,10.16-5.191,20.472-4.19,31.175c0.555,5.927,2.133,11.61,4.676,17.003
		c0.925,1.959,2.485,3.237,4.442,4.218c7.524,3.773,15.169,7.25,23.169,9.903c0.575,0.19,1.144,0.402,1.71,0.617
		c1.554,0.588,2.284,1.752,1.695,3.29c-0.566,1.479-1.923,0.812-2.936,0.546c-4.541-1.189-9.033-2.575-13.597-3.668
		c-18.86-4.529-37.977-6.083-57.31-4.443c-12.807,1.086-25.35,3.65-37.685,7.264c-4.023,1.182-5.289-0.131-4.518-4.284
		c1.31-7.065,4.077-13.621,6.898-20.162c5.417-12.559,11.915-24.562,18.791-36.367c0.893-1.534,1.813-3.024,3.969-2.883
		c0.861,0.057,1.22-0.516,1.209-1.359c-0.012-0.879-0.483-1.122-1.3-1.292c-4.506-0.937-9.027-1.791-13.317-3.59
		c-6.21-2.603-6.302-2.566-3.857-8.648c3.552-8.836,2.874-17.058-2.63-25.037c-6.722-9.744-10.456-20.54-9.27-32.54
		c1.42-14.374,7.583-26.545,18.003-36.513c11.961-11.44,26.264-16.918,42.809-16.147c4.487,0.209,8.991,0.995,13.02,4.433
		c-4.803,0.368-9.168,0.782-13.46,1.742c-19.656,4.403-29.617,17.084-30.576,36.962c-0.541,11.212,1.39,22.063,4.17,32.845
		c0.51,1.976,1.214,1.575,2.485,0.95c7.837-3.853,10.354-9.479,7.839-17.845c-2.967-9.876-2.545-19.696,0.833-29.329
		c4.454-12.704,16.227-20.229,29.668-19.534c11.041,0.569,20.326,4.797,28.2,12.509
		C358.166,170.958,363.604,178.491,368.825,186.706z M353.863,200.345c0.722,0.204,1.634,1.114,2.353,0.271
		c0.729-0.858,0.007-1.792-0.373-2.637c-1.264-2.813-3.267-5.165-4.887-7.756c-0.918-1.467-2.442-1.609-3.985-1.24
		c-9.632,2.303-18.864,5.552-27.068,11.313c-3.563,2.501-6.563,5.389-6.845,9.981c-0.343,5.609,0.293,11.195,1.268,16.715
		c1.485,8.42,4.877,16.084,9.66,23.144c0.59,0.872,1.07,1.543-0.227,2.292c-9.662,5.574-19.7,10.259-30.981,11.083
		c-5.358,0.392-9.289,2.504-12.393,6.706c-1.022,1.382-0.949,2.216,0.283,3.468c9.908,10.07,20.284,19.597,31.676,27.98
		c5.106,3.757,10.309,7.366,15.913,10.54c0.509-1.21,0.036-2.082-0.195-2.974c-4.323-16.693-3.176-32.946,3.77-48.786
		c0.74-1.686,1.416-1.83,3.005-1.251c2.771,1.011,5.638,1.82,8.582,2.16c6.672,0.772,12.071-0.614,11.739-9.735
		c-0.06-1.652-0.271-3.426,0.687-4.855c1.253-1.87,0.841-3.216-0.925-4.369c3.733-2.453,4.134-3.263,3.425-6.806
		c-0.782-3.907-0.349-4.511,3.622-5.062c4.419-0.612,5.688-2.663,3.705-6.633c-1.636-3.275-3.652-6.366-5.59-9.481
		c-2.018-3.24-3.006-6.63-1.835-10.466c-4.365,1.12-5.903,2.959-6.309,7.285c-0.071,0.768-0.271,1.555-0.576,2.262
		c-0.378,0.875-1.466,1.213-1.911,0.565c-1.833-2.671-3.055-0.906-4.502,0.35c-0.438,0.38-1.025,1.002-1.806,0.546
		c-0.733-2.83,0.8-4.49,2.92-5.854c1.463-0.939,2.964-1.827,4.38-2.834c0.697-0.497,1.523-1.269,1.326-2.103
		c-0.216-0.91-1.386-0.908-2.211-1.045c-2.348-0.391-4.48,0.281-6.54,1.394c-2.34,1.264-4.481,2.916-7.471,3.915
		C339.415,200.822,345.944,198.103,353.863,200.345z"/>
	<path fill-rule="evenodd" clip-rule="evenodd" fill="#FFF" d="M456.097,287.331c-3.761-0.011-6.326-1.522-7.663-4.581
		c-1.388-3.17-2.375-6.511-3.606-9.75c-0.456-1.2,0.059-1.583,1.104-1.721c6.116-0.802,11.277-4.378,17.146-5.915
		c1.831-0.479,3.356-1.62,4.244-3.27c0.756-1.406,1.557-1.03,2.539-0.518c3.592,1.873,6.34,11.792,4.23,15.279
		c-1.636,2.707-4.249,3.827-7.131,2.703c-1.616-0.632-2.235-0.292-2.739,1.268C462.902,284.914,460.029,287.075,456.097,287.331z
		 M460.949,272.034c-2.728,1.046-5.458,2.087-8.173,3.168c-1.423,0.567-3.132,0.998-2.587,3.153
		c0.522,2.057,1.703,3.305,4.033,3.308c4.693,0.003,7.972-4.109,7.656-9.852C461.555,271.887,461.238,271.924,460.949,272.034z
		 M471.409,271.412c-0.139-1.137-0.413-2.49-2.11-2.481c-2.338,0.013-4.222,1.361-4.066,3.1c0.155,1.739,0.913,3.033,2.803,2.741
		C470.056,274.729,471.627,273.209,471.409,271.412z"/>
	<path fill-rule="evenodd" clip-rule="evenodd" fill="#FFF" d="M472.563,325.788c-3.195-0.026-6.221-0.8-7.874,2.642
		c-0.487,1.018-1.289,0.125-1.786-0.118c-1.486-0.724-3.001-4.825-2.601-6.505c0.217-0.91,0.88-0.712,1.435-0.708
		c6.271,0.056,12.057-2.61,18.208-3.259c1.476-0.156,2.873-1.002,3.737-2.245c1.565-2.254,2.83-1.059,3.845,0.33
		c0.801,1.096,1.33,2.449,1.735,3.763c0.672,2.18,0.804,4.455,0.705,6.736c-0.285,6.593-5.646,10.09-11.419,6.87
		c-2.85-1.589-4.374-1.008-6.264,0.881c-1.773,1.774-4.002,3.152-4.788,5.765c-0.122,0.409-0.223,1.096-1.022,0.88
		c-1.665-0.456-2.647-1.454-3.026-3.199c-0.318-1.464-0.911-2.771,0.813-3.852C467.445,331.768,470.345,329.423,472.563,325.788z
		 M483.337,322.517c-1.361,0.234-2.83,0.239-4.047,0.794c-1.063,0.483-2.946-0.369-3.128,1.151c-0.162,1.353,1.254,2.383,2.29,3.308
		c0.439,0.391,0.976,0.723,1.525,0.936c2.729,1.059,6.427-1.101,6.474-3.75C486.489,322.868,485.562,322.137,483.337,322.517z"/>
	<path fill-rule="evenodd" clip-rule="evenodd" fill="#FFF" d="M484.148,300.056c0.021,3.607-1.726,6.39-4.432,8.485
		c-4.776,3.7-10.265,5.123-16.217,3.963c-4.271-0.833-7.226-3.47-8.257-7.776c-1.193-4.975,0.601-9.035,4.759-11.79
		c4.606-3.052,9.628-4.729,15.341-3.527C480.733,290.546,484.165,294.528,484.148,300.056z M460.688,299.23
		c-1.521,1.173-2.327,2.696-1.775,4.58c0.487,1.659,1.61,2.635,3.444,3.162c2.17,0.621,4.174,0.208,6.203-0.159
		c3.772-0.685,7.432-1.813,10.31-4.508c2.368-2.214,1.934-5.46-0.75-7.048c-1.219-0.721-2.529-0.573-3.848-0.62
		C469.323,294.909,464.693,296.14,460.688,299.23z"/>
	<path fill-rule="evenodd" clip-rule="evenodd" fill="#FFF" d="M214.368,198.886c-1.519-1.898-2.789-3.618-4.724-4.554
		c-0.594-0.287-1.323-1.081-2.099-0.222c-1.586,1.752-3.168,3.509-4.737,5.277c-0.604,0.679-0.11,1.07,0.42,1.46
		c1.123,0.831,2.299,1.605,3.326,2.542c1.375,1.254,1.445,2.643,0.185,4.121c-1.99,2.335-2.524,2.32-4.185-0.333
		c-3.464-5.533-6.94-11.06-10.368-16.616c-0.69-1.12-1.593-1.892-2.846-2.111c-1.407-0.248-1.657-1.181-1.508-2.301
		c0.464-3.492,4.519-5.836,7.807-4.536c5.901,2.334,11.564,5.182,17.197,8.082c1.042,0.535,2.028,0.881,3.209,0.884
		c2.329,0.006,3.265,1.561,2.021,3.609C217.078,195.815,215.708,197.211,214.368,198.886z M203.573,190.813
		c-2.084-1.017-4.182-2.006-6.307-2.938c-0.405-0.178-0.905-0.732-1.393-0.183c-0.452,0.508-0.383,1.151-0.127,1.73
		c1.027,2.313,2.456,4.377,3.999,6.37c0.298,0.386,0.705,0.701,1.067,0.312c1.301-1.395,2.528-2.858,3.711-4.213
		C204.708,190.97,203.971,191.005,203.573,190.813z"/>
	<path fill-rule="evenodd" clip-rule="evenodd" fill="#FFF" d="M463.548,245.18c0.008,1.553-0.672,2.435-1.435,3.294
		c-4.304,4.851-8.995,9.308-13.782,13.668c-0.842,0.768-1.713,1.509-2.121,2.602c-0.66,1.767-2.25,2.288-3.757,1.052
		c-1.462-1.197-1.945-3.027-2.605-4.706c-0.348-0.884,0.485-0.886,1.01-1.113c7.784-3.358,5.281-3.747,2.398-9.419
		c-1.135-2.227-2.319-2.15-4.027-0.253c-0.857,0.951-1.202,2.736-3.164,1.974c-2.022-0.786-2.61-2.722-3.437-4.396
		c-0.353-0.71,0.566-0.901,1.163-1.013c6.739-1.263,13.305-3.344,20.113-4.284c1.312-0.18,2.521-0.708,3.377-1.811
		c1.363-1.757,2.688-1.299,3.85,0.17C462.205,242.304,463.185,243.748,463.548,245.18z M450.477,246.864
		c-4.572,1-4.779,1.627-1.975,5.554c0.152,0.211,0.311,0.421,0.477,0.622c0.527,0.635,1.085,0.901,1.695,0.099
		c1.886-2.477,4.32-4.51,6.173-7.451C454.512,246.114,452.48,246.425,450.477,246.864z"/>
	<path fill-rule="evenodd" clip-rule="evenodd" fill="#FFF" d="M332.404,537.311c0.513-0.163,0.755-0.22,0.979-0.314
		c4.27-1.784,4.315-1.818,7.095,1.846c8.55,11.269,16.998,22.617,25.641,33.816c1.792,2.322-0.505,2.501-1.284,3.453
		c-1.019,1.244-1.64,0.411-2.386-0.541c-5.549-7.098-11.158-14.151-16.755-21.211c-0.658-0.83-1.076-2.101-2.57-0.799
		c-1.245,1.083-1.489,2.006-0.487,3.334c3.58,4.735,7.119,9.5,10.685,14.246c1.785,2.375,3.657,4.688,5.354,7.125
		c0.484,0.697,2.186,1.652,0.239,2.617c-1.313,0.652-2.414,2.866-4.234,0.398c-4.046-5.487-8.274-10.841-12.406-16.265
		c-4.186-5.491-8.356-10.992-12.501-16.514c-1.146-1.528-2.688-2.121-4.379-1.553c-1.558,0.52-1.192,2.135-1.189,3.407
		c0.018,14.383,0.051,28.767,0.065,43.146c0.001,0.787-0.106,1.574-0.214,2.353c-0.138,1.007-0.761,1.583-1.76,1.629
		c-0.911,0.042-1.754-0.205-2.213-1.102c-0.576-1.119-0.705-2.329-0.702-3.571c0.023-8.153,0.013-16.309,0.067-24.46
		c0.012-1.76-0.111-3.212-2.422-3.115c-2.226,0.091-2.047,1.604-2.052,3.168c-0.024,8.68-0.08,17.363-0.19,26.045
		c-0.019,1.503,0.199,3.417-2.211,3.408c-2.288-0.01-2.563-1.689-2.675-3.446c-0.012-0.175-0.01-0.35-0.014-0.524
		c-0.12-4.603-1.258-5.464-5.913-4.774c-1.18,0.172-1.163,0.801-1.164,1.612c-0.002,1.576-0.076,3.16,0.018,4.732
		c0.1,1.634-0.742,2.233-2.184,2.247c-1.448,0.011-1.852-0.78-1.84-2.189c0.08-9.119,0.078-18.24,0.101-27.36
		c0.007-2.584-0.853-3.425-2.996-2.949c-1.303,0.29-1.924,1.159-1.978,2.43c-0.096,2.188-0.185,4.375-0.193,6.565
		c-0.027,6.752-0.099,13.506,0.03,20.259c0.04,2.006-0.849,2.341-2.481,2.365c-1.617,0.026-3.052-0.008-3.051-2.19
		c0.003-1.576-0.072-3.155-0.073-4.731c-0.007-13.154,0.01-26.312-0.03-39.467c-0.004-1.025,0.635-2.429-0.902-2.96
		c-1.436-0.5-2.601,0.197-3.476,1.269c-3.492,4.27-6.954,8.563-10.401,12.867c-5.09,6.356-10.17,12.722-15.225,19.104
		c-0.999,1.26-1.977,1.971-3.482,0.731c-1.362-1.121-1.031-2.085-0.055-3.321c5.41-6.861,10.749-13.778,16.107-20.683
		c0.372-0.479,0.739-0.974,1.025-1.507c0.692-1.29,0.72-2.569-0.54-3.512c-1.43-1.069-2.495-0.139-3.346,0.924
		c-4.98,6.217-9.925,12.466-14.883,18.701c-0.709,0.892-1.426,1.776-2.137,2.666c-1.184,1.481-2.523,2.166-4.247,0.813
		c-1.669-1.311-1.165-2.672-0.095-4.062c5.058-6.579,10.105-13.164,15.166-19.74c3.304-4.293,6.558-8.623,9.959-12.836
		c2.038-2.522,4.125-5.416,8.01-2.683c0.493,0.346,0.803,0.018,0.99-0.424c0.541-1.281,0.409-2.544-0.046-3.833
		c-0.485-1.374-1.61-0.812-2.449-0.812c-16.927-0.036-33.854-0.027-50.78-0.027c-0.591,0-1.183,0-2.233,0
		c4.56-5.897,8.86-11.463,13.164-17.023c2.888-3.732,5.814-7.434,8.657-11.199c1.238-1.64,2.614-2.477,4.819-2.447
		c8.943,0.133,17.892-0.014,26.835,0.109c2.027,0.03,2.417-0.564,2.412-2.48c-0.069-23.065-0.016-46.131-0.092-69.197
		c-0.008-2.258,0.37-3.092,2.915-3.067c14.909,0.143,29.819,0.116,44.728,0.019c2.177-0.013,2.759,0.558,2.752,2.746
		c-0.082,23.24-0.018,46.482-0.103,69.725c-0.007,2.216,0.397,2.963,2.813,2.912c8.766-0.184,17.535-0.034,26.303-0.146
		c2.804-0.036,4.947,0.974,6.559,3.143c6.566,8.824,13.097,17.673,19.628,26.523c0.079,0.104,0.012,0.316,0.012,0.713
		c-0.829,0-1.67,0-2.51,0c-16.138,0-32.276,0.073-48.411-0.074c-2.699-0.025-3.62,0.683-3.185,3.284
		C332.514,535.417,332.404,536.223,332.404,537.311z M239.15,524.692c21.646,0.012,43.29-0.006,64.934,0.054
		c1.678,0.004,1.803-0.74,1.791-2.052c-0.048-4.73-0.126-9.466,0.029-14.192c0.07-2.185-0.583-2.797-2.785-2.789
		c-15.422,0.063-30.849,0.167-46.264-0.164c-4.428-0.095-7.257,0.976-9.487,4.934c-2.703,4.797-6.063,9.223-9.242,13.964
		C238.693,524.587,238.922,524.692,239.15,524.692z M290.876,473.328c-0.014,1.368,0.176,2.029,1.798,1.981
		c3.935-0.122,7.876-0.091,11.814-0.013c1.339,0.027,1.83-0.314,1.776-1.732c-0.108-2.883-0.123-5.778,0.002-8.661
		c0.071-1.634-0.708-2.386-2.073-2.848c-3.11-1.054-5.28-2.797-5.399-6.457c-0.127-3.904,2.024-5.926,5.372-7.018
		c1.604-0.524,2.153-1.456,2.092-3.09c-0.1-2.619-0.083-5.249-0.007-7.875c0.047-1.671-0.541-2.343-2.289-2.293
		c-3.673,0.105-7.354,0.111-11.026-0.002c-1.603-0.052-2.099,0.392-2.072,2.037c0.098,5.95,0.04,11.901,0.04,17.854
		C290.904,461.251,290.94,467.291,290.876,473.328z M326.279,433.274c0.017-1.873-0.501-2.355-2.33-2.292
		c-4.116,0.141-8.241-0.03-12.358,0.092c-1.068,0.031-2.949-0.855-3.13,0.688c-0.219,1.88,2.012,1.355,3.161,1.872
		c0.513,0.229,1.21,0.056,1.824,0.056c2.804,0,5.61,0.069,8.412-0.033c1.737-0.061,2.243,0.6,2.235,2.303
		c-0.058,13.324-0.071,26.649,0.015,39.975c0.012,1.766-0.636,1.973-2.116,1.933c-3.416-0.096-6.836-0.034-10.254-0.03
		c-3.113,0.007-3.572,0.374-3.6,3.391c-0.053,5.874,0.045,11.747-0.056,17.618c-0.03,1.734,0.681,2.009,2.173,1.985
		c4.559-0.073,9.119-0.107,13.674,0.014c1.834,0.048,2.359-0.5,2.346-2.351c-0.086-10.868-0.042-21.738-0.042-32.608
		C326.233,455.016,326.186,444.146,326.279,433.274z M319.62,541.055c2.336-0.135,5.533,1.022,6.767-0.468
		c1.172-1.416,0.231-4.503,0.409-6.84c0.129-1.707-0.548-2.049-2.099-2.003c-3.503,0.105-7.01,0.034-10.516,0.034
		c-7.652,0-7.6-0.007-7.011,7.622c0.114,1.472,0.688,1.711,1.935,1.681c2.629-0.063,5.259-0.02,7.888-0.02
		C317.868,541.062,318.748,541.104,319.62,541.055z M302.18,489.33c0.125-5.178,0.125-5.178-5.088-5.178c-0.437,0-0.874,0-1.311,0
		c-4.84,0-4.84,0-4.84,4.735c0,5.33,0,5.33,5.452,5.33C302.061,494.218,302.061,494.218,302.18,489.33z M308.137,548.401
		c0.068-1.553-0.406-2.252-2.067-2.137c-1.525,0.105-2.754,0.211-2.714,2.26c0.081,4.201,0.106,8.409-0.013,12.61
		c-0.055,1.96,0.962,2.031,2.452,2.073c1.649,0.048,2.445-0.397,2.343-2.193c-0.113-2.011-0.026-4.029-0.026-6.045
		C308.112,552.781,308.042,550.587,308.137,548.401z M307.145,460.749c-0.092,1.507,0.631,1.553,1.738,1.259
		c3.415-0.913,5.352-3.634,5.245-7.39c-0.087-3.062-2.151-5.325-5.396-6.063c-1.115-0.255-1.627-0.105-1.576,1.174
		c0.07,1.836,0.017,3.674,0.016,5.511C307.171,457.076,307.256,458.917,307.145,460.749z"/>
	<path fill-rule="evenodd" clip-rule="evenodd" fill="#FFF" d="M320.845,495.729c-2.392,0.053-3.238-0.766-3.197-2.348
		c0.037-1.436,0.92-2.253,2.32-2.298c1.492-0.048,2.527,0.622,2.541,2.278C322.524,494.98,321.609,495.694,320.845,495.729z"/>
	<path fill-rule="evenodd" clip-rule="evenodd" fill="#FFF" d="M313.412,483.133c2.055-0.018,3.134,0.967,3.149,2.266
		c0.015,1.28-1.003,2.427-2.55,2.415c-1.45-0.014-2.494-0.647-2.525-2.313C311.459,483.843,312.438,483.24,313.412,483.133z"/>
	<path fill-rule="evenodd" clip-rule="evenodd" fill="#FFF" d="M319.652,483.139c1.968,0.002,2.905,0.744,2.887,2.333
		c-0.019,1.591-1.021,2.384-2.537,2.332c-1.367-0.046-2.322-0.783-2.341-2.263C317.642,483.983,318.421,483.111,319.652,483.139z"/>
	<path fill-rule="evenodd" clip-rule="evenodd" fill="#FFF" d="M314.106,495.792c-1.685,0.002-2.602-0.629-2.652-2.272
		c-0.053-1.691,0.989-2.31,2.416-2.398c1.559-0.094,2.63,1.006,2.636,2.295C316.51,494.662,315.58,495.831,314.106,495.792z"/>
</g>
</svg>
